<svg xmlns="http://www.w3.org/2000/svg" xmlns:oryx="http://oryx-editor.org" id="_8C922DFE-2915-44EC-9AA3-7DB5DFE7570B" width="995" height="421" xmlns:xlink="http://www.w3.org/1999/xlink" xmlns:svg="http://www.w3.org/2000/svg"><defs><marker id="_85F13EFF-FA86-46B4-9651-69EC45F553B7start" refX="1" refY="5" markerUnits="userSpaceOnUse" markerWidth="17" markerHeight="11" orient="auto" fill="#000000" stroke="#000000">
	  		<path id="_85F13EFF-FA86-46B4-9651-69EC45F553B7conditional" d="M 0 5 L 8 0 L 16 5 L 8 10 L 0 5" fill="white" stroke="#000000" stroke-width="1" display="none"/>
			<path id="_85F13EFF-FA86-46B4-9651-69EC45F553B7default" d="M 5 0 L 11 10" fill="white" stroke="#000000" stroke-width="1" display="none"/>
	  	</marker><marker id="_85F13EFF-FA86-46B4-9651-69EC45F553B7end" refX="15" refY="6" markerUnits="userSpaceOnUse" markerWidth="15" markerHeight="12" orient="auto" fill="#000000" stroke="#000000">
	  		<path id="_85F13EFF-FA86-46B4-9651-69EC45F553B7frame2" d="M 0 1 L 15 6 L 0 11z" fill="#000000" stroke="#000000" stroke-linejoin="round" stroke-width="2"/>
	  	</marker><marker id="_27E6DCD5-3C12-4A61-BF27-3CB491329C62start" refX="1" refY="5" markerUnits="userSpaceOnUse" markerWidth="17" markerHeight="11" orient="auto" fill="#000000" stroke="#000000">
	  		<path id="_27E6DCD5-3C12-4A61-BF27-3CB491329C62conditional" d="M 0 5 L 8 0 L 16 5 L 8 10 L 0 5" fill="white" stroke="#000000" stroke-width="1" display="none"/>
			<path id="_27E6DCD5-3C12-4A61-BF27-3CB491329C62default" d="M 5 0 L 11 10" fill="white" stroke="#000000" stroke-width="1" display="none"/>
	  	</marker><marker id="_27E6DCD5-3C12-4A61-BF27-3CB491329C62end" refX="15" refY="6" markerUnits="userSpaceOnUse" markerWidth="15" markerHeight="12" orient="auto" fill="#000000" stroke="#000000">
	  		<path id="_27E6DCD5-3C12-4A61-BF27-3CB491329C62frame2" d="M 0 1 L 15 6 L 0 11z" fill="#000000" stroke="#000000" stroke-linejoin="round" stroke-width="2"/>
	  	</marker><marker id="_0CB0585B-5178-4BC2-A137-BAFAC2273AA6start" refX="1" refY="5" markerUnits="userSpaceOnUse" markerWidth="17" markerHeight="11" orient="auto" fill="#000000" stroke="#000000">
	  		<path id="_0CB0585B-5178-4BC2-A137-BAFAC2273AA6conditional" d="M 0 5 L 8 0 L 16 5 L 8 10 L 0 5" fill="white" stroke="#000000" stroke-width="1" display="none"/>
			<path id="_0CB0585B-5178-4BC2-A137-BAFAC2273AA6default" d="M 5 0 L 11 10" fill="white" stroke="#000000" stroke-width="1" display="none"/>
	  	</marker><marker id="_0CB0585B-5178-4BC2-A137-BAFAC2273AA6end" refX="15" refY="6" markerUnits="userSpaceOnUse" markerWidth="15" markerHeight="12" orient="auto" fill="#000000" stroke="#000000">
	  		<path id="_0CB0585B-5178-4BC2-A137-BAFAC2273AA6frame2" d="M 0 1 L 15 6 L 0 11z" fill="#000000" stroke="#000000" stroke-linejoin="round" stroke-width="2"/>
	  	</marker><marker id="_B89889C3-8FCE-4D89-9ECC-EE537D4E4F1Estart" refX="1" refY="5" markerUnits="userSpaceOnUse" markerWidth="17" markerHeight="11" orient="auto" fill="#000000" stroke="#000000">
	  		<path id="_B89889C3-8FCE-4D89-9ECC-EE537D4E4F1Econditional" d="M 0 5 L 8 0 L 16 5 L 8 10 L 0 5" fill="white" stroke="#000000" stroke-width="1" display="none"/>
			<path id="_B89889C3-8FCE-4D89-9ECC-EE537D4E4F1Edefault" d="M 5 0 L 11 10" fill="white" stroke="#000000" stroke-width="1" display="none"/>
	  	</marker><marker id="_B89889C3-8FCE-4D89-9ECC-EE537D4E4F1Eend" refX="15" refY="6" markerUnits="userSpaceOnUse" markerWidth="15" markerHeight="12" orient="auto" fill="#000000" stroke="#000000">
	  		<path id="_B89889C3-8FCE-4D89-9ECC-EE537D4E4F1Eframe2" d="M 0 1 L 15 6 L 0 11z" fill="#000000" stroke="#000000" stroke-linejoin="round" stroke-width="2"/>
	  	</marker><marker id="_FE421989-EE5D-42BE-BAA1-AA96597CD351start" refX="1" refY="5" markerUnits="userSpaceOnUse" markerWidth="17" markerHeight="11" orient="auto" fill="#000000" stroke="#000000">
	  		<path id="_FE421989-EE5D-42BE-BAA1-AA96597CD351conditional" d="M 0 5 L 8 0 L 16 5 L 8 10 L 0 5" fill="white" stroke="#000000" stroke-width="1" display="none"/>
			<path id="_FE421989-EE5D-42BE-BAA1-AA96597CD351default" d="M 5 0 L 11 10" fill="white" stroke="#000000" stroke-width="1" display="none"/>
	  	</marker><marker id="_FE421989-EE5D-42BE-BAA1-AA96597CD351end" refX="15" refY="6" markerUnits="userSpaceOnUse" markerWidth="15" markerHeight="12" orient="auto" fill="#000000" stroke="#000000">
	  		<path id="_FE421989-EE5D-42BE-BAA1-AA96597CD351frame2" d="M 0 1 L 15 6 L 0 11z" fill="#000000" stroke="#000000" stroke-linejoin="round" stroke-width="2"/>
	  	</marker><marker id="_4F09CCC6-CE4B-4113-A055-503561367674start" refX="1" refY="5" markerUnits="userSpaceOnUse" markerWidth="17" markerHeight="11" orient="auto" fill="#000000" stroke="#000000">
	  		<path id="_4F09CCC6-CE4B-4113-A055-503561367674conditional" d="M 0 5 L 8 0 L 16 5 L 8 10 L 0 5" fill="white" stroke="#000000" stroke-width="1" display="none"/>
			<path id="_4F09CCC6-CE4B-4113-A055-503561367674default" d="M 5 0 L 11 10" fill="white" stroke="#000000" stroke-width="1" display="none"/>
	  	</marker><marker id="_4F09CCC6-CE4B-4113-A055-503561367674end" refX="15" refY="6" markerUnits="userSpaceOnUse" markerWidth="15" markerHeight="12" orient="auto" fill="#000000" stroke="#000000">
	  		<path id="_4F09CCC6-CE4B-4113-A055-503561367674frame2" d="M 0 1 L 15 6 L 0 11z" fill="#000000" stroke="#000000" stroke-linejoin="round" stroke-width="2"/>
	  	</marker></defs><g stroke="none" font-family="Verdana, sans-serif" font-size-adjust="none" font-style="normal" font-variant="normal" font-weight="normal" line-heigth="normal" font-size="12"><g class="stencils" transform="translate(15, 16)"><g class="me"/><g class="children"><g id="_43087933-87BE-49DA-94EC-31A6AA86941E"><g class="stencils" transform="translate(75, 160)"><g class="me"><g pointer-events="fill" id="_43087933-87BE-49DA-94EC-31A6AA86941E">
  
    <defs id="_43087933-87BE-49DA-94EC-31A6AA86941E__43087933-87BE-49DA-94EC-31A6AA86941E_5">
		<radialGradient id="_43087933-87BE-49DA-94EC-31A6AA86941Ebackground" cx="10%" cy="10%" r="100%" fx="10%" fy="10%">
			<stop offset="0%" stop-color="#ffffff" stop-opacity="1" id="_43087933-87BE-49DA-94EC-31A6AA86941E__43087933-87BE-49DA-94EC-31A6AA86941E_6"/>
			<stop id="_43087933-87BE-49DA-94EC-31A6AA86941Efill_el" offset="100%" stop-color="#9acd32" stop-opacity="1"/>
		</radialGradient>
	</defs>
	
    <circle id="_43087933-87BE-49DA-94EC-31A6AA86941Ebg_frame" cx="15" cy="15" r="15" stroke="#000000" fill="url(#_43087933-87BE-49DA-94EC-31A6AA86941Ebackground) white" stroke-width="1"/>
	<text font-size="11" id="_43087933-87BE-49DA-94EC-31A6AA86941Etext_name" x="15" y="32" oryx:align="top center" stroke="black" stroke-width="0pt" letter-spacing="-0.01px" fill="#000000" text-anchor="middle" transform="rotate(0 15 32)" visibility="inherit" oryx:fontSize="11"/>
  </g></g><g class="children" style="overflow:hidden"/><g class="edge"/></g><g class="controls"><g class="dockers"/><g class="magnets" transform="translate(75, 160)"><g pointer-events="all" display="none" transform="translate(7, 7)"><circle cx="8" cy="8" r="4" stroke="none" fill="red" fill-opacity="0.3"/></g></g></g></g><g id="_571E252B-959F-40B4-B19D-BF71A4994AD4"><g class="stencils" transform="translate(195, 300)"><g class="me"><g pointer-events="fill" oryx:minimumSize="50 40" id="_571E252B-959F-40B4-B19D-BF71A4994AD4">
  	<defs id="_571E252B-959F-40B4-B19D-BF71A4994AD4__571E252B-959F-40B4-B19D-BF71A4994AD4_17">
		<radialGradient id="_571E252B-959F-40B4-B19D-BF71A4994AD4background" cx="10%" cy="10%" r="100%" fx="10%" fy="10%">
			<stop offset="0%" stop-color="#ffffff" stop-opacity="1" id="_571E252B-959F-40B4-B19D-BF71A4994AD4__571E252B-959F-40B4-B19D-BF71A4994AD4_18"/>
			<stop id="_571E252B-959F-40B4-B19D-BF71A4994AD4fill_el" offset="100%" stop-color="#fafad2" stop-opacity="1"/>
		</radialGradient>
		<radialGradient id="_571E252B-959F-40B4-B19D-BF71A4994AD4borderbackground" cx="10%" cy="10%" r="100%" fx="10%" fy="10%">
			<stop offset="0%" stop-color="#ffffff" stop-opacity="1" id="_571E252B-959F-40B4-B19D-BF71A4994AD4__571E252B-959F-40B4-B19D-BF71A4994AD4_19"/>
			<stop id="_571E252B-959F-40B4-B19D-BF71A4994AD4fill_border" offset="100%" stop-color="#000000" stop-opacity="1" stroke="#000000"/>
		</radialGradient>
	</defs>
	
	<rect id="_571E252B-959F-40B4-B19D-BF71A4994AD4text_frame" oryx:anchors="bottom top right left" x="1" y="1" width="94" height="79" rx="10" ry="10" stroke="none" stroke-width="0" fill="none"/>
	<rect id="_571E252B-959F-40B4-B19D-BF71A4994AD4bg_frame" oryx:resize="vertical horizontal" x="0" y="0" width="100" height="80" rx="10" ry="10" stroke="#000000" stroke-width="1" fill="url(#_571E252B-959F-40B4-B19D-BF71A4994AD4background) #ffffcc"/>
		<text font-size="12" id="_571E252B-959F-40B4-B19D-BF71A4994AD4text_name" x="50" y="40" oryx:align="middle center" oryx:fittoelem="text_frame" stroke="black" stroke-width="0pt" letter-spacing="-0.01px" fill="#000000" text-anchor="middle" transform="rotate(0 50 40)" visibility="inherit" oryx:fontSize="12"><tspan x="50" y="40" dy="5">Realizar Pago</tspan></text>
    <g id="_571E252B-959F-40B4-B19D-BF71A4994AD4manualTask" transform="scale(0.7,0.7) translate(8,8)" display="none">
    	<path oryx:anchors="top left" id="_571E252B-959F-40B4-B19D-BF71A4994AD4frame" style="opacity:1;fill:none;fill-opacity:1;stroke-width:1" d="M0.5,3.751l4.083-3.25c0,0,11.166,0.083,12.083,0.083s-2.417,2.917-1.5,2.917     s11.667,0,12.584,0c1.166,1.708-0.168,3.167-0.834,3.667s0.875,1.917-1,4.417c-0.75,0.25,0.75,1.875-1.333,3.333     c-1.167,0.583,0.583,1.542-1.25,2.833c-1.167,0-20.833,0.083-20.833,0.083l-2-1.333V3.751z" stroke="#000000"/>
		<path id="_571E252B-959F-40B4-B19D-BF71A4994AD4frame2" oryx:anchors="top left" style="opacity:1;fill:none;stroke-width:2" d="M 13.5 7 L 27 7" stroke="#000000"/>
		<path id="_571E252B-959F-40B4-B19D-BF71A4994AD4frame3" oryx:anchors="top left" style="opacity:1;fill:none;stroke-width:2" d="M 13.5 11 L 26 11" stroke="#000000"/>
		<path id="_571E252B-959F-40B4-B19D-BF71A4994AD4frame4" oryx:anchors="top left" style="opacity:1;fill:none;stroke-width:1.5" d="M 14 14.5 L 25 14.5" stroke="#000000"/>
		<path id="_571E252B-959F-40B4-B19D-BF71A4994AD4frame5" oryx:anchors="top left" style="opacity:1;fill:none;stroke-width:1.5" d="M 8.2 3.1 L 15 3.1" stroke="#000000"/>
	</g>
	
	<g id="_571E252B-959F-40B4-B19D-BF71A4994AD4businessRuleTask" transform="scale(0.7,0.7) translate(8,8)" display="none">
		<rect id="_571E252B-959F-40B4-B19D-BF71A4994AD4frame6" oryx:anchors="top left" x="0" y="0" width="22" height="4" style="opacity:1;fill:#B3B1B3;fill-opacity:1;" stroke="#000000"/>
		<rect id="_571E252B-959F-40B4-B19D-BF71A4994AD4frame7" oryx:anchors="top left" x="0" y="4" style="opacity:1;fill:none;" width="22" height="12" stroke="#000000"/>
		<path id="_571E252B-959F-40B4-B19D-BF71A4994AD4frame8" oryx:anchors="top left" style="opacity:1;fill:none;" d="M 0 10 L 22 10" stroke="#000000"/>
		<path id="_571E252B-959F-40B4-B19D-BF71A4994AD4frame9" oryx:anchors="top left" style="opacity:1; fill:none;" d="M 7 4 L 7 16" stroke="#000000"/>
	</g>
	
	<g id="_571E252B-959F-40B4-B19D-BF71A4994AD4scriptTask" transform="scale(0.7,0.7) translate(8,8)" display="none">
		<path oryx:anchors="top left" id="_571E252B-959F-40B4-B19D-BF71A4994AD4frame10" style="opacity:1;fill:none;" stroke="#000000" d="M6.402,0.5h14.5c0,0-5.833,2.833-5.833,5.583s4.417,6,4.417,9.167    s-4.167,5.083-4.167,5.083H0.235c0,0,5-2.667,5-5s-4.583-6.75-4.583-9.25S6.402,0.5,6.402,0.5z"/>
		<path oryx:anchors="top left" id="_571E252B-959F-40B4-B19D-BF71A4994AD4frame11" style="opacity:1;fill:none;stroke-width:1.5" d="M 3.5 4.5 L 13.5 4.5" stroke="#000000"/>
		<path oryx:anchors="top left" id="_571E252B-959F-40B4-B19D-BF71A4994AD4frame12" style="opacity:1;fill:none;stroke-width:1.5" d="M 3.8 8.5 L 13.8 8.5" stroke="#000000"/>
		<path oryx:anchors="top left" id="_571E252B-959F-40B4-B19D-BF71A4994AD4frame13" style="opacity:1;fill:none;stroke-width:1.5" d="M 6.3 12.5 L 16.3 12.5" stroke="#000000"/>
		<path oryx:anchors="top left" id="_571E252B-959F-40B4-B19D-BF71A4994AD4frame14" style="opacity:1;fill:none;stroke-width:1.5" d="M 6.5 16.5 L 16.5 16.5" stroke="#000000"/>
	</g>
	
	<g id="_571E252B-959F-40B4-B19D-BF71A4994AD4userTask" transform="scale(0.7,0.7) translate(8,8)" display="inherit">
		<path id="_571E252B-959F-40B4-B19D-BF71A4994AD4frame15" oryx:anchors="top left" style="opacity:1;fill:#F4F6F7" stroke="#000000" d="M0.585,24.167h24.083v-7.833c0,0-2.333-3.917-7.083-5.167h-9.25    c-4.417,1.333-7.833,5.75-7.833,5.75L0.585,24.167z"/>
		<path id="_571E252B-959F-40B4-B19D-BF71A4994AD4frame16" oryx:anchors="top left" style="opacity:1;fill:none" d="M 6 20 L 6 24" stroke="#000000"/>
		<path id="_571E252B-959F-40B4-B19D-BF71A4994AD4frame17" oryx:anchors="top left" style="opacity:1;fill:none" d="M 20 20 L 20 24" stroke="#000000"/>
		<circle id="_571E252B-959F-40B4-B19D-BF71A4994AD4frame18" oryx:anchors="top left" fill="black" cx="13.002" cy="5.916" r="5.417" stroke="#000000"/>
		<path id="_571E252B-959F-40B4-B19D-BF71A4994AD4frame19" oryx:anchors="top left" style="opacity:1;fill:#F0EFF0;" stroke="#000000" d="M8.043,7.083c0,0,2.814-2.426,5.376-1.807s4.624-0.693,4.624-0.693    c0.25,1.688,0.042,3.75-1.458,5.584c0,0,1.083,0.75,1.083,1.5s0.125,1.875-1,3s-5.5,1.25-6.75,0S8.668,12.834,8.668,12    s0.583-1.25,1.25-1.917C8.835,9.5,7.419,7.708,8.043,7.083z"/>
	</g>
	
	<g id="_571E252B-959F-40B4-B19D-BF71A4994AD4serviceTask" transform="scale(0.7,0.7) translate(8,8)" display="none">
		<polygon oryx:anchors="top left" id="_571E252B-959F-40B4-B19D-BF71A4994AD4frame20" style="opacity:1;fill:#ffffff" stroke="#000000" points="15.392,5.064 17.954,2.502 20.347,4.895 17.786,7.455     18.729,9.732 22.353,9.732 22.353,13.115 18.731,13.115 17.788,15.392 20.351,17.955 17.958,20.347 15.397,17.786 13.12,18.729     13.12,22.353 9.737,22.353 9.737,18.731 7.46,17.788 4.897,20.35 2.506,17.958 5.066,15.397 4.124,13.12 0.5,13.12 0.5,9.737     4.121,9.737 5.065,7.461 2.503,4.898 4.895,2.506 7.455,5.066 9.732,4.125 9.732,0.5 13.116,0.5 13.116,4.121 "/>
		<circle oryx:anchors="top left" id="_571E252B-959F-40B4-B19D-BF71A4994AD4frame21" style="opacity:1;fill:none" stroke="#000000" cx="11.427" cy="11.426" r="3.714"/>
		<polygon oryx:anchors="top left" id="_571E252B-959F-40B4-B19D-BF71A4994AD4frame22" style="opacity:1;fill:#ffffff" stroke="#000000" points="21.392,11.064 23.954,8.502 26.347,10.895 23.786,13.455     24.729,15.732 28.353,15.732 28.353,19.115 24.731,19.115 23.788,21.392 26.351,23.955 23.958,26.347 21.397,23.786 19.12,24.729     19.12,28.353 15.737,28.353 15.737,24.731 13.46,23.788 10.897,26.35 8.506,23.958 11.066,21.397 10.124,19.12 6.5,19.12     6.5,15.737 10.121,15.737 11.065,13.461 8.503,10.898 10.895,8.506 13.455,11.066 15.732,10.125 15.732,6.5 19.116,6.5     19.116,10.121 "/>
		<circle oryx:anchors="top left" id="_571E252B-959F-40B4-B19D-BF71A4994AD4frame23" style="opacity:1;fill:none;" stroke="#000000" cx="17.427" cy="17.426" r="3.714"/>
	</g>
	
	<g id="_571E252B-959F-40B4-B19D-BF71A4994AD4sendTask" display="none">
		<path id="_571E252B-959F-40B4-B19D-BF71A4994AD4stframe24" oryx:anchors="left top" stroke="#FFFFFF" fill="black" stroke-width="1" d="M8,11 L8,21 L24,21 L24,11 L16,17z"/>
		<path id="_571E252B-959F-40B4-B19D-BF71A4994AD4stframe25" oryx:anchors="left top" stroke="#FFFFFF" fill="black" stroke-width="1" d="M7,10 L16,17 L25 10z"/>
	</g>
	
	<g id="_571E252B-959F-40B4-B19D-BF71A4994AD4receiveTask" display="none">
		<path id="_571E252B-959F-40B4-B19D-BF71A4994AD4frame26" oryx:anchors="left top" stroke="#000000" fill="none" stroke-width="1" d="M8,11 L8,21 L24,21 L24,11z M8,11 L16,17 L24,11"/>
	</g>
	
	<g id="_571E252B-959F-40B4-B19D-BF71A4994AD4none" display="inherit"/>

	<g id="_571E252B-959F-40B4-B19D-BF71A4994AD4sequential" display="none">
        <path oryx:anchors="bottom" fill="none" stroke="#000000" stroke-width="2" d="M46,76h10M46,72h10 M46,68h10" id="_571E252B-959F-40B4-B19D-BF71A4994AD4__571E252B-959F-40B4-B19D-BF71A4994AD4_20"/>
    </g>
  </g></g><g class="children" style="overflow:hidden"/><g class="edge"/></g><g class="controls"><g class="dockers"/><g class="magnets" transform="translate(195, 300)"><g pointer-events="all" display="none" transform="translate(-7, 12)"><circle cx="8" cy="8" r="4" stroke="none" fill="red" fill-opacity="0.3"/></g><g pointer-events="all" display="none" transform="translate(-7, 32)"><circle cx="8" cy="8" r="4" stroke="none" fill="red" fill-opacity="0.3"/></g><g pointer-events="all" display="none" transform="translate(-7, 52)"><circle cx="8" cy="8" r="4" stroke="none" fill="red" fill-opacity="0.3"/></g><g pointer-events="all" display="none" transform="translate(17, 71)"><circle cx="8" cy="8" r="4" stroke="none" fill="red" fill-opacity="0.3"/></g><g pointer-events="all" display="none" transform="translate(42, 71)"><circle cx="8" cy="8" r="4" stroke="none" fill="red" fill-opacity="0.3"/></g><g pointer-events="all" display="none" transform="translate(67, 71)"><circle cx="8" cy="8" r="4" stroke="none" fill="red" fill-opacity="0.3"/></g><g pointer-events="all" display="none" transform="translate(91, 12)"><circle cx="8" cy="8" r="4" stroke="none" fill="red" fill-opacity="0.3"/></g><g pointer-events="all" display="none" transform="translate(91, 32)"><circle cx="8" cy="8" r="4" stroke="none" fill="red" fill-opacity="0.3"/></g><g pointer-events="all" display="none" transform="translate(91, 52)"><circle cx="8" cy="8" r="4" stroke="none" fill="red" fill-opacity="0.3"/></g><g pointer-events="all" display="none" transform="translate(17, -7)"><circle cx="8" cy="8" r="4" stroke="none" fill="red" fill-opacity="0.3"/></g><g pointer-events="all" display="none" transform="translate(42, -7)"><circle cx="8" cy="8" r="4" stroke="none" fill="red" fill-opacity="0.3"/></g><g pointer-events="all" display="none" transform="translate(67, -7)"><circle cx="8" cy="8" r="4" stroke="none" fill="red" fill-opacity="0.3"/></g><g pointer-events="all" display="none" transform="translate(42, 32)"><circle cx="8" cy="8" r="4" stroke="none" fill="red" fill-opacity="0.3"/></g></g></g></g><g id="_FF7C0E48-A76A-4660-96FC-199F8117CBB9"><g class="stencils" transform="translate(675, 133)"><g class="me"><g pointer-events="fill" oryx:minimumSize="50 40" id="_FF7C0E48-A76A-4660-96FC-199F8117CBB9">
  	<defs id="_FF7C0E48-A76A-4660-96FC-199F8117CBB9__FF7C0E48-A76A-4660-96FC-199F8117CBB9_17">
		<radialGradient id="_FF7C0E48-A76A-4660-96FC-199F8117CBB9background" cx="10%" cy="10%" r="100%" fx="10%" fy="10%">
			<stop offset="0%" stop-color="#ffffff" stop-opacity="1" id="_FF7C0E48-A76A-4660-96FC-199F8117CBB9__FF7C0E48-A76A-4660-96FC-199F8117CBB9_18"/>
			<stop id="_FF7C0E48-A76A-4660-96FC-199F8117CBB9fill_el" offset="100%" stop-color="#fafad2" stop-opacity="1"/>
		</radialGradient>
		<radialGradient id="_FF7C0E48-A76A-4660-96FC-199F8117CBB9borderbackground" cx="10%" cy="10%" r="100%" fx="10%" fy="10%">
			<stop offset="0%" stop-color="#ffffff" stop-opacity="1" id="_FF7C0E48-A76A-4660-96FC-199F8117CBB9__FF7C0E48-A76A-4660-96FC-199F8117CBB9_19"/>
			<stop id="_FF7C0E48-A76A-4660-96FC-199F8117CBB9fill_border" offset="100%" stop-color="#000000" stop-opacity="1" stroke="#000000"/>
		</radialGradient>
	</defs>
	
	<rect id="_FF7C0E48-A76A-4660-96FC-199F8117CBB9text_frame" oryx:anchors="bottom top right left" x="1" y="1" width="94" height="79" rx="10" ry="10" stroke="none" stroke-width="0" fill="none"/>
	<rect id="_FF7C0E48-A76A-4660-96FC-199F8117CBB9bg_frame" oryx:resize="vertical horizontal" x="0" y="0" width="100" height="80" rx="10" ry="10" stroke="#000000" stroke-width="1" fill="url(#_FF7C0E48-A76A-4660-96FC-199F8117CBB9background) #ffffcc"/>
		<text font-size="12" id="_FF7C0E48-A76A-4660-96FC-199F8117CBB9text_name" x="50" y="40" oryx:align="middle center" oryx:fittoelem="text_frame" stroke="black" stroke-width="0pt" letter-spacing="-0.01px" fill="#000000" text-anchor="middle" transform="rotate(0 50 40)" visibility="inherit" oryx:fontSize="12"><tspan x="50" y="40" dy="-7" id="ext-gen571">Declaracion </tspan><tspan x="50" y="40" dy="5">Mensual de </tspan><tspan x="50" y="40" dy="17" id="ext-gen570">Sustancias</tspan></text>
    <g id="_FF7C0E48-A76A-4660-96FC-199F8117CBB9manualTask" transform="scale(0.7,0.7) translate(8,8)" display="none">
    	<path oryx:anchors="top left" id="_FF7C0E48-A76A-4660-96FC-199F8117CBB9frame" style="opacity:1;fill:none;fill-opacity:1;stroke-width:1" d="M0.5,3.751l4.083-3.25c0,0,11.166,0.083,12.083,0.083s-2.417,2.917-1.5,2.917     s11.667,0,12.584,0c1.166,1.708-0.168,3.167-0.834,3.667s0.875,1.917-1,4.417c-0.75,0.25,0.75,1.875-1.333,3.333     c-1.167,0.583,0.583,1.542-1.25,2.833c-1.167,0-20.833,0.083-20.833,0.083l-2-1.333V3.751z" stroke="#000000"/>
		<path id="_FF7C0E48-A76A-4660-96FC-199F8117CBB9frame2" oryx:anchors="top left" style="opacity:1;fill:none;stroke-width:2" d="M 13.5 7 L 27 7" stroke="#000000"/>
		<path id="_FF7C0E48-A76A-4660-96FC-199F8117CBB9frame3" oryx:anchors="top left" style="opacity:1;fill:none;stroke-width:2" d="M 13.5 11 L 26 11" stroke="#000000"/>
		<path id="_FF7C0E48-A76A-4660-96FC-199F8117CBB9frame4" oryx:anchors="top left" style="opacity:1;fill:none;stroke-width:1.5" d="M 14 14.5 L 25 14.5" stroke="#000000"/>
		<path id="_FF7C0E48-A76A-4660-96FC-199F8117CBB9frame5" oryx:anchors="top left" style="opacity:1;fill:none;stroke-width:1.5" d="M 8.2 3.1 L 15 3.1" stroke="#000000"/>
	</g>
	
	<g id="_FF7C0E48-A76A-4660-96FC-199F8117CBB9businessRuleTask" transform="scale(0.7,0.7) translate(8,8)" display="none">
		<rect id="_FF7C0E48-A76A-4660-96FC-199F8117CBB9frame6" oryx:anchors="top left" x="0" y="0" width="22" height="4" style="opacity:1;fill:#B3B1B3;fill-opacity:1;" stroke="#000000"/>
		<rect id="_FF7C0E48-A76A-4660-96FC-199F8117CBB9frame7" oryx:anchors="top left" x="0" y="4" style="opacity:1;fill:none;" width="22" height="12" stroke="#000000"/>
		<path id="_FF7C0E48-A76A-4660-96FC-199F8117CBB9frame8" oryx:anchors="top left" style="opacity:1;fill:none;" d="M 0 10 L 22 10" stroke="#000000"/>
		<path id="_FF7C0E48-A76A-4660-96FC-199F8117CBB9frame9" oryx:anchors="top left" style="opacity:1; fill:none;" d="M 7 4 L 7 16" stroke="#000000"/>
	</g>
	
	<g id="_FF7C0E48-A76A-4660-96FC-199F8117CBB9scriptTask" transform="scale(0.7,0.7) translate(8,8)" display="none">
		<path oryx:anchors="top left" id="_FF7C0E48-A76A-4660-96FC-199F8117CBB9frame10" style="opacity:1;fill:none;" stroke="#000000" d="M6.402,0.5h14.5c0,0-5.833,2.833-5.833,5.583s4.417,6,4.417,9.167    s-4.167,5.083-4.167,5.083H0.235c0,0,5-2.667,5-5s-4.583-6.75-4.583-9.25S6.402,0.5,6.402,0.5z"/>
		<path oryx:anchors="top left" id="_FF7C0E48-A76A-4660-96FC-199F8117CBB9frame11" style="opacity:1;fill:none;stroke-width:1.5" d="M 3.5 4.5 L 13.5 4.5" stroke="#000000"/>
		<path oryx:anchors="top left" id="_FF7C0E48-A76A-4660-96FC-199F8117CBB9frame12" style="opacity:1;fill:none;stroke-width:1.5" d="M 3.8 8.5 L 13.8 8.5" stroke="#000000"/>
		<path oryx:anchors="top left" id="_FF7C0E48-A76A-4660-96FC-199F8117CBB9frame13" style="opacity:1;fill:none;stroke-width:1.5" d="M 6.3 12.5 L 16.3 12.5" stroke="#000000"/>
		<path oryx:anchors="top left" id="_FF7C0E48-A76A-4660-96FC-199F8117CBB9frame14" style="opacity:1;fill:none;stroke-width:1.5" d="M 6.5 16.5 L 16.5 16.5" stroke="#000000"/>
	</g>
	
	<g id="_FF7C0E48-A76A-4660-96FC-199F8117CBB9userTask" transform="scale(0.7,0.7) translate(8,8)" display="inherit">
		<path id="_FF7C0E48-A76A-4660-96FC-199F8117CBB9frame15" oryx:anchors="top left" style="opacity:1;fill:#F4F6F7" stroke="#000000" d="M0.585,24.167h24.083v-7.833c0,0-2.333-3.917-7.083-5.167h-9.25    c-4.417,1.333-7.833,5.75-7.833,5.75L0.585,24.167z"/>
		<path id="_FF7C0E48-A76A-4660-96FC-199F8117CBB9frame16" oryx:anchors="top left" style="opacity:1;fill:none" d="M 6 20 L 6 24" stroke="#000000"/>
		<path id="_FF7C0E48-A76A-4660-96FC-199F8117CBB9frame17" oryx:anchors="top left" style="opacity:1;fill:none" d="M 20 20 L 20 24" stroke="#000000"/>
		<circle id="_FF7C0E48-A76A-4660-96FC-199F8117CBB9frame18" oryx:anchors="top left" fill="black" cx="13.002" cy="5.916" r="5.417" stroke="#000000"/>
		<path id="_FF7C0E48-A76A-4660-96FC-199F8117CBB9frame19" oryx:anchors="top left" style="opacity:1;fill:#F0EFF0;" stroke="#000000" d="M8.043,7.083c0,0,2.814-2.426,5.376-1.807s4.624-0.693,4.624-0.693    c0.25,1.688,0.042,3.75-1.458,5.584c0,0,1.083,0.75,1.083,1.5s0.125,1.875-1,3s-5.5,1.25-6.75,0S8.668,12.834,8.668,12    s0.583-1.25,1.25-1.917C8.835,9.5,7.419,7.708,8.043,7.083z"/>
	</g>
	
	<g id="_FF7C0E48-A76A-4660-96FC-199F8117CBB9serviceTask" transform="scale(0.7,0.7) translate(8,8)" display="none">
		<polygon oryx:anchors="top left" id="_FF7C0E48-A76A-4660-96FC-199F8117CBB9frame20" style="opacity:1;fill:#ffffff" stroke="#000000" points="15.392,5.064 17.954,2.502 20.347,4.895 17.786,7.455     18.729,9.732 22.353,9.732 22.353,13.115 18.731,13.115 17.788,15.392 20.351,17.955 17.958,20.347 15.397,17.786 13.12,18.729     13.12,22.353 9.737,22.353 9.737,18.731 7.46,17.788 4.897,20.35 2.506,17.958 5.066,15.397 4.124,13.12 0.5,13.12 0.5,9.737     4.121,9.737 5.065,7.461 2.503,4.898 4.895,2.506 7.455,5.066 9.732,4.125 9.732,0.5 13.116,0.5 13.116,4.121 "/>
		<circle oryx:anchors="top left" id="_FF7C0E48-A76A-4660-96FC-199F8117CBB9frame21" style="opacity:1;fill:none" stroke="#000000" cx="11.427" cy="11.426" r="3.714"/>
		<polygon oryx:anchors="top left" id="_FF7C0E48-A76A-4660-96FC-199F8117CBB9frame22" style="opacity:1;fill:#ffffff" stroke="#000000" points="21.392,11.064 23.954,8.502 26.347,10.895 23.786,13.455     24.729,15.732 28.353,15.732 28.353,19.115 24.731,19.115 23.788,21.392 26.351,23.955 23.958,26.347 21.397,23.786 19.12,24.729     19.12,28.353 15.737,28.353 15.737,24.731 13.46,23.788 10.897,26.35 8.506,23.958 11.066,21.397 10.124,19.12 6.5,19.12     6.5,15.737 10.121,15.737 11.065,13.461 8.503,10.898 10.895,8.506 13.455,11.066 15.732,10.125 15.732,6.5 19.116,6.5     19.116,10.121 "/>
		<circle oryx:anchors="top left" id="_FF7C0E48-A76A-4660-96FC-199F8117CBB9frame23" style="opacity:1;fill:none;" stroke="#000000" cx="17.427" cy="17.426" r="3.714"/>
	</g>
	
	<g id="_FF7C0E48-A76A-4660-96FC-199F8117CBB9sendTask" display="none">
		<path id="_FF7C0E48-A76A-4660-96FC-199F8117CBB9stframe24" oryx:anchors="left top" stroke="#FFFFFF" fill="black" stroke-width="1" d="M8,11 L8,21 L24,21 L24,11 L16,17z"/>
		<path id="_FF7C0E48-A76A-4660-96FC-199F8117CBB9stframe25" oryx:anchors="left top" stroke="#FFFFFF" fill="black" stroke-width="1" d="M7,10 L16,17 L25 10z"/>
	</g>
	
	<g id="_FF7C0E48-A76A-4660-96FC-199F8117CBB9receiveTask" display="none">
		<path id="_FF7C0E48-A76A-4660-96FC-199F8117CBB9frame26" oryx:anchors="left top" stroke="#000000" fill="none" stroke-width="1" d="M8,11 L8,21 L24,21 L24,11z M8,11 L16,17 L24,11"/>
	</g>
	
	<g id="_FF7C0E48-A76A-4660-96FC-199F8117CBB9none" display="inherit"/>

	<g id="_FF7C0E48-A76A-4660-96FC-199F8117CBB9sequential" display="none">
        <path oryx:anchors="bottom" fill="none" stroke="#000000" stroke-width="2" d="M46,76h10M46,72h10 M46,68h10" id="_FF7C0E48-A76A-4660-96FC-199F8117CBB9__FF7C0E48-A76A-4660-96FC-199F8117CBB9_20"/>
    </g>
  </g></g><g class="children" style="overflow:hidden"/><g class="edge"/></g><g class="controls"><g class="dockers"/><g class="magnets" transform="translate(675, 133)"><g pointer-events="all" display="none" transform="translate(-7, 12)"><circle cx="8" cy="8" r="4" stroke="none" fill="red" fill-opacity="0.3"/></g><g pointer-events="all" display="none" transform="translate(-7, 32)"><circle cx="8" cy="8" r="4" stroke="none" fill="red" fill-opacity="0.3"/></g><g pointer-events="all" display="none" transform="translate(-7, 52)"><circle cx="8" cy="8" r="4" stroke="none" fill="red" fill-opacity="0.3"/></g><g pointer-events="all" display="none" transform="translate(17, 71)"><circle cx="8" cy="8" r="4" stroke="none" fill="red" fill-opacity="0.3"/></g><g pointer-events="all" display="none" transform="translate(42, 71)"><circle cx="8" cy="8" r="4" stroke="none" fill="red" fill-opacity="0.3"/></g><g pointer-events="all" display="none" transform="translate(67, 71)"><circle cx="8" cy="8" r="4" stroke="none" fill="red" fill-opacity="0.3"/></g><g pointer-events="all" display="none" transform="translate(91, 12)"><circle cx="8" cy="8" r="4" stroke="none" fill="red" fill-opacity="0.3"/></g><g pointer-events="all" display="none" transform="translate(91, 32)"><circle cx="8" cy="8" r="4" stroke="none" fill="red" fill-opacity="0.3"/></g><g pointer-events="all" display="none" transform="translate(91, 52)"><circle cx="8" cy="8" r="4" stroke="none" fill="red" fill-opacity="0.3"/></g><g pointer-events="all" display="none" transform="translate(17, -7)"><circle cx="8" cy="8" r="4" stroke="none" fill="red" fill-opacity="0.3"/></g><g pointer-events="all" display="none" transform="translate(42, -7)"><circle cx="8" cy="8" r="4" stroke="none" fill="red" fill-opacity="0.3"/></g><g pointer-events="all" display="none" transform="translate(67, -7)"><circle cx="8" cy="8" r="4" stroke="none" fill="red" fill-opacity="0.3"/></g><g pointer-events="all" display="none" transform="translate(42, 32)"><circle cx="8" cy="8" r="4" stroke="none" fill="red" fill-opacity="0.3"/></g></g></g></g><g id="_BE9B381A-E073-44F2-B8C1-603BB51447FA"><g class="stencils" transform="translate(926, 157)"><g class="me"><g pointer-events="fill" id="_BE9B381A-E073-44F2-B8C1-603BB51447FA">
 
    <defs id="_BE9B381A-E073-44F2-B8C1-603BB51447FA__BE9B381A-E073-44F2-B8C1-603BB51447FA_5">
		<radialGradient id="_BE9B381A-E073-44F2-B8C1-603BB51447FAbackground" cx="10%" cy="10%" r="100%" fx="10%" fy="10%">
			<stop offset="0%" stop-color="#ffffff" stop-opacity="1" id="_BE9B381A-E073-44F2-B8C1-603BB51447FA__BE9B381A-E073-44F2-B8C1-603BB51447FA_6"/>
			<stop id="_BE9B381A-E073-44F2-B8C1-603BB51447FAfill_el" offset="100%" stop-color="#ff6347" stop-opacity="1"/>
		</radialGradient>
		<radialGradient id="_BE9B381A-E073-44F2-B8C1-603BB51447FAborderbackground" cx="10%" cy="10%" r="100%" fx="10%" fy="10%">
			<stop offset="0%" stop-color="#ffffff" stop-opacity="1" id="_BE9B381A-E073-44F2-B8C1-603BB51447FA__BE9B381A-E073-44F2-B8C1-603BB51447FA_7"/>
			<stop id="_BE9B381A-E073-44F2-B8C1-603BB51447FAfill_border" offset="100%" stop-color="#000000" stop-opacity="1" stroke="#000000"/>
		</radialGradient>
	</defs>
	
    <circle id="_BE9B381A-E073-44F2-B8C1-603BB51447FAbg_frame" cx="15" cy="15" r="14" stroke="#000000" fill="url(#_BE9B381A-E073-44F2-B8C1-603BB51447FAbackground) white" stroke-width="3"/>
    
    <circle id="_BE9B381A-E073-44F2-B8C1-603BB51447FAframe" cx="15" cy="15" r="9" stroke="#000000" fill="url(#_BE9B381A-E073-44F2-B8C1-603BB51447FAborderbackground)" stroke-width="1"/>
	<text font-size="11" id="_BE9B381A-E073-44F2-B8C1-603BB51447FAtext_name" x="14" y="30" oryx:align="top center" stroke="black" stroke-width="0pt" letter-spacing="-0.01px" fill="#000000" text-anchor="middle" transform="rotate(0 14 30)" visibility="inherit" oryx:fontSize="11"/>
  </g></g><g class="children" style="overflow:hidden"/><g class="edge"/></g><g class="controls"><g class="dockers"/><g class="magnets" transform="translate(926, 157)"><g pointer-events="all" display="none" transform="translate(6, 6)"><circle cx="8" cy="8" r="4" stroke="none" fill="red" fill-opacity="0.3"/></g></g></g></g><g id="_F694D77C-4DEF-47B5-A360-BF53B98A152F"><g class="stencils" transform="translate(225, 155)"><g class="me"><g id="_F694D77C-4DEF-47B5-A360-BF53B98A152F">
  
    <defs id="_F694D77C-4DEF-47B5-A360-BF53B98A152F__F694D77C-4DEF-47B5-A360-BF53B98A152F_4">
		<radialGradient id="_F694D77C-4DEF-47B5-A360-BF53B98A152Fbackground" cx="10%" cy="10%" r="100%" fx="10%" fy="10%">
			<stop offset="0%" stop-color="#ffffff" stop-opacity="1" id="_F694D77C-4DEF-47B5-A360-BF53B98A152F__F694D77C-4DEF-47B5-A360-BF53B98A152F_5"/>
			<stop id="_F694D77C-4DEF-47B5-A360-BF53B98A152Ffill_el" offset="100%" stop-color="#f0e68c" stop-opacity="1"/>
		</radialGradient>
		<radialGradient id="_F694D77C-4DEF-47B5-A360-BF53B98A152Fborderbackground" cx="10%" cy="10%" r="100%" fx="10%" fy="10%">
			<stop offset="0%" stop-color="#ffffff" stop-opacity="1" id="_F694D77C-4DEF-47B5-A360-BF53B98A152F__F694D77C-4DEF-47B5-A360-BF53B98A152F_6"/>
			<stop id="_F694D77C-4DEF-47B5-A360-BF53B98A152Ffill_border" offset="100%" stop-color="#a67f00" stop-opacity="1" stroke="#a67f00"/>
		</radialGradient>
	</defs>
	
    <path d=" M0 20.5  L20.5 0  L40 20.5  L20.5 40  z" id="_F694D77C-4DEF-47B5-A360-BF53B98A152Fbg_frame" fill="url(#_F694D77C-4DEF-47B5-A360-BF53B98A152Fbackground) white" style="stroke-width:1" stroke="#a67f00"/>
    <g id="_F694D77C-4DEF-47B5-A360-BF53B98A152Fframe" stroke="#a67f00">
      <path id="_F694D77C-4DEF-47B5-A360-BF53B98A152Fframe2" d=" M13.25 12.05  L17.25 12.05  L27.65 28.95  L23.75 28.95  z" style="stroke-width:1" stroke="#a67f00" fill="url(#_F694D77C-4DEF-47B5-A360-BF53B98A152Fborderbackground)"/>
      <path id="_F694D77C-4DEF-47B5-A360-BF53B98A152Fframe3" d=" M13.25 28.95  L23.75 12.05  L27.65 12.05  L17.25 28.95  z" style="stroke-width:1" stroke="#a67f00" fill="url(#_F694D77C-4DEF-47B5-A360-BF53B98A152Fborderbackground)"/>
    </g>
	
	<text id="_F694D77C-4DEF-47B5-A360-BF53B98A152Ftext_name" x="30.5" y="30.5" oryx:align="left top" stroke-width="0pt" letter-spacing="-0.01px" fill="#000000" text-anchor="start" transform="rotate(0 30.5 30.5)" visibility="inherit" oryx:fontSize="12"><tspan x="30.5" y="30.5" dy="12">requiere pago</tspan></text>
	
  </g></g><g class="children" style="overflow:hidden"/><g class="edge"/></g><g class="controls"><g class="dockers"/><g class="magnets" transform="translate(225, 155)"><g pointer-events="all" display="none" transform="translate(12.5, 12.5)"><circle cx="8" cy="8" r="4" stroke="none" fill="red" fill-opacity="0.3"/></g></g></g></g><g id="_75134907-9DE1-4859-8972-0480F85421BE"><g class="stencils" transform="translate(465, 153)"><g class="me"><g id="_75134907-9DE1-4859-8972-0480F85421BE">
  
    <defs id="_75134907-9DE1-4859-8972-0480F85421BE__75134907-9DE1-4859-8972-0480F85421BE_4">
		<radialGradient id="_75134907-9DE1-4859-8972-0480F85421BEbackground" cx="10%" cy="10%" r="100%" fx="10%" fy="10%">
			<stop offset="0%" stop-color="#ffffff" stop-opacity="1" id="_75134907-9DE1-4859-8972-0480F85421BE__75134907-9DE1-4859-8972-0480F85421BE_5"/>
			<stop id="_75134907-9DE1-4859-8972-0480F85421BEfill_el" offset="100%" stop-color="#f0e68c" stop-opacity="1"/>
		</radialGradient>
		<radialGradient id="_75134907-9DE1-4859-8972-0480F85421BEborderbackground" cx="10%" cy="10%" r="100%" fx="10%" fy="10%">
			<stop offset="0%" stop-color="#ffffff" stop-opacity="1" id="_75134907-9DE1-4859-8972-0480F85421BE__75134907-9DE1-4859-8972-0480F85421BE_6"/>
			<stop id="_75134907-9DE1-4859-8972-0480F85421BEfill_border" offset="100%" stop-color="#a67f00" stop-opacity="1" stroke="#a67f00"/>
		</radialGradient>
	</defs>
	
    <path d=" M0 20.5  L20.5 0  L40 20.5  L20.5 40  z" id="_75134907-9DE1-4859-8972-0480F85421BEbg_frame" fill="url(#_75134907-9DE1-4859-8972-0480F85421BEbackground) white" style="stroke-width:1" stroke="#a67f00"/>
    <g id="_75134907-9DE1-4859-8972-0480F85421BEframe" stroke="#a67f00">
      <path id="_75134907-9DE1-4859-8972-0480F85421BEframe2" d=" M13.25 12.05  L17.25 12.05  L27.65 28.95  L23.75 28.95  z" style="stroke-width:1" stroke="#a67f00" fill="url(#_75134907-9DE1-4859-8972-0480F85421BEborderbackground)"/>
      <path id="_75134907-9DE1-4859-8972-0480F85421BEframe3" d=" M13.25 28.95  L23.75 12.05  L27.65 12.05  L17.25 28.95  z" style="stroke-width:1" stroke="#a67f00" fill="url(#_75134907-9DE1-4859-8972-0480F85421BEborderbackground)"/>
    </g>
	
	<text id="_75134907-9DE1-4859-8972-0480F85421BEtext_name" x="30.5" y="30.5" oryx:align="left top" stroke-width="0pt" letter-spacing="-0.01px" fill="#000000" text-anchor="start" transform="rotate(0 30.5 30.5)" visibility="inherit" oryx:fontSize="12"/>
	
  </g></g><g class="children" style="overflow:hidden"/><g class="edge"/></g><g class="controls"><g class="dockers"/><g class="magnets" transform="translate(465, 153)"><g pointer-events="all" display="none" transform="translate(12.5, 12.5)"><circle cx="8" cy="8" r="4" stroke="none" fill="red" fill-opacity="0.3"/></g></g></g></g></g><g class="edge"><g id="_85F13EFF-FA86-46B4-9651-69EC45F553B7"><g class="stencils"><g class="me"><g pointer-events="painted"><path id="_85F13EFF-FA86-46B4-9651-69EC45F553B7_1" d="M105.53125 175L224.625 175 " stroke="#000000" fill="none" stroke-width="2" stroke-linecap="round" stroke-linejoin="round" marker-start="url(#_85F13EFF-FA86-46B4-9651-69EC45F553B7start)" marker-end="url(#_85F13EFF-FA86-46B4-9651-69EC45F553B7end)"/></g><text id="_85F13EFF-FA86-46B4-9651-69EC45F553B7text_name" font-size="12" x="119.53125" y="161" oryx:edgePosition="startTop" stroke-width="0pt" letter-spacing="-0.01px" fill="#000000" text-anchor="start" transform="rotate(360 105.53125 175)" visibility="inherit" oryx:fontSize="12"/></g><g class="children" style="overflow:hidden"/><g class="edge"/></g><g class="controls"><g class="dockers"/><g class="magnets"/></g></g><g id="_27E6DCD5-3C12-4A61-BF27-3CB491329C62"><g class="stencils"><g class="me"><g pointer-events="painted"><path id="_27E6DCD5-3C12-4A61-BF27-3CB491329C62_1" d="M504.75 173L674.3125 173 " stroke="#000000" fill="none" stroke-width="2" stroke-linecap="round" stroke-linejoin="round" marker-start="url(#_27E6DCD5-3C12-4A61-BF27-3CB491329C62start)" marker-end="url(#_27E6DCD5-3C12-4A61-BF27-3CB491329C62end)"/></g><text id="_27E6DCD5-3C12-4A61-BF27-3CB491329C62text_name" font-size="12" x="518.75" y="159" oryx:edgePosition="startTop" stroke-width="0pt" letter-spacing="-0.01px" fill="#000000" text-anchor="start" transform="rotate(360 504.75 173)" visibility="inherit" oryx:fontSize="12"/></g><g class="children" style="overflow:hidden"/><g class="edge"/></g><g class="controls"><g class="dockers"/><g class="magnets"/></g></g><g id="_0CB0585B-5178-4BC2-A137-BAFAC2273AA6"><g class="stencils"><g class="me"><g pointer-events="painted"><path id="_0CB0585B-5178-4BC2-A137-BAFAC2273AA6_1" d="M775.21875 173L851 173 L851 171 L927.058389487742 170.19393077000123 " stroke="#000000" fill="none" stroke-width="2" stroke-linecap="round" stroke-linejoin="round" marker-start="url(#_0CB0585B-5178-4BC2-A137-BAFAC2273AA6start)" marker-end="url(#_0CB0585B-5178-4BC2-A137-BAFAC2273AA6end)"/></g><text id="_0CB0585B-5178-4BC2-A137-BAFAC2273AA6text_name" font-size="12" x="789.21875" y="159" oryx:edgePosition="startTop" stroke-width="0pt" letter-spacing="-0.01px" fill="#000000" text-anchor="start" transform="rotate(360 775.21875 173)" visibility="inherit" oryx:fontSize="12"/></g><g class="children" style="overflow:hidden"/><g class="edge"/></g><g class="controls"><g class="dockers"/><g class="magnets"/></g></g><g id="_B89889C3-8FCE-4D89-9ECC-EE537D4E4F1E"><g class="stencils"><g class="me"><g pointer-events="painted"><path id="_B89889C3-8FCE-4D89-9ECC-EE537D4E4F1E_1" d="M245 195.3359375L245 299.0390625 " stroke="#000000" fill="none" stroke-width="2" stroke-linecap="round" stroke-linejoin="round" marker-start="url(#_B89889C3-8FCE-4D89-9ECC-EE537D4E4F1Estart)" marker-end="url(#_B89889C3-8FCE-4D89-9ECC-EE537D4E4F1Eend)"/></g><text id="_B89889C3-8FCE-4D89-9ECC-EE537D4E4F1Etext_name" font-size="12" x="231" y="181.3359375" oryx:edgePosition="startTop" stroke-width="0pt" letter-spacing="-0.01px" fill="#000000" text-anchor="end" transform="rotate(-90 245 195.3359375)" visibility="inherit" oryx:fontSize="12"><tspan x="231" y="181.3359375" dy="0">SI</tspan></text></g><g class="children" style="overflow:hidden"/><g class="edge"/></g><g class="controls"><g class="dockers"/><g class="magnets"/></g></g><g id="_FE421989-EE5D-42BE-BAA1-AA96597CD351"><g class="stencils"><g class="me"><g pointer-events="painted"><path id="_FE421989-EE5D-42BE-BAA1-AA96597CD351_1" d="M264.74996527958615 174.83541695600346L465.25003472041385 173.16458304399654 " stroke="#000000" fill="none" stroke-width="2" stroke-linecap="round" stroke-linejoin="round" marker-start="url(#_FE421989-EE5D-42BE-BAA1-AA96597CD351start)" marker-end="url(#_FE421989-EE5D-42BE-BAA1-AA96597CD351end)"/></g><text id="_FE421989-EE5D-42BE-BAA1-AA96597CD351text_name" font-size="12" x="278.74996527958615" y="160.83541695600346" oryx:edgePosition="startTop" stroke-width="0pt" letter-spacing="-0.01px" fill="#000000" text-anchor="start" transform="rotate(359.52254622269044 264.74996527958615 174.83541695600346)" visibility="inherit" oryx:fontSize="12"><tspan x="278.74996527958615" y="160.83541695600346" dy="0">NO</tspan></text></g><g class="children" style="overflow:hidden"/><g class="edge"/></g><g class="controls"><g class="dockers"/><g class="magnets"/></g></g><g id="_4F09CCC6-CE4B-4113-A055-503561367674"><g class="stencils"><g class="me"><g pointer-events="painted"><path id="_4F09CCC6-CE4B-4113-A055-503561367674_1" d="M295.6875 340L485 340 L485 192.91796875 " stroke="#000000" fill="none" stroke-width="2" stroke-linecap="round" stroke-linejoin="round" marker-start="url(#_4F09CCC6-CE4B-4113-A055-503561367674start)" marker-end="url(#_4F09CCC6-CE4B-4113-A055-503561367674end)"/></g><text id="_4F09CCC6-CE4B-4113-A055-503561367674text_name" font-size="12" x="309.6875" y="326" oryx:edgePosition="startTop" stroke-width="0pt" letter-spacing="-0.01px" fill="#000000" text-anchor="start" transform="rotate(360 295.6875 340)" visibility="inherit" oryx:fontSize="12"/></g><g class="children" style="overflow:hidden"/><g class="edge"/></g><g class="controls"><g class="dockers"/><g class="magnets"/></g></g></g><text id="_12444EC8-7361-4BAB-94DB-79C32612D0C1" style="stroke-width:1;fill:rgb(177,194,214);font-family:arial;font-weight:bold" font-size="12" onclick="ORYX.Plugins.CanvasTitle.openTextualAnalysis()" onmouseover="ORYX.Plugins.CanvasTitle.addToolTip('_12444EC8-7361-4BAB-94DB-79C32612D0C1')" transform="translate(10, 20)">Declaracion Sustancias Quimicas v.1.0 (rcoa.DeclaracionSustanciasQuimicas)</text></g></g></svg>
