<svg xmlns="http://www.w3.org/2000/svg" xmlns:oryx="http://oryx-editor.org" id="_3080B3D8-3D41-43C4-A47E-34CF63C23F4F" width="1035" height="371" xmlns:xlink="http://www.w3.org/1999/xlink" xmlns:svg="http://www.w3.org/2000/svg"><defs><marker id="_E253FE7E-C7C1-4943-9CC8-B95E3C4B82BAstart" refX="1" refY="5" markerUnits="userSpaceOnUse" markerWidth="17" markerHeight="11" orient="auto" fill="#000000" stroke="#000000"> 	  		<path id="_E253FE7E-C7C1-4943-9CC8-B95E3C4B82BAconditional" d="M 0 5 L 8 0 L 16 5 L 8 10 L 0 5" fill="white" stroke="#000000" stroke-width="1" display="none"/> 			<path id="_E253FE7E-C7C1-4943-9CC8-B95E3C4B82BAdefault" d="M 5 0 L 11 10" fill="white" stroke="#000000" stroke-width="1" display="none"/> 	  	</marker><marker id="_E253FE7E-C7C1-4943-9CC8-B95E3C4B82BAend" refX="15" refY="6" markerUnits="userSpaceOnUse" markerWidth="15" markerHeight="12" orient="auto" fill="#000000" stroke="#000000"> 	  		<path id="_E253FE7E-C7C1-4943-9CC8-B95E3C4B82BAframe2" d="M 0 1 L 15 6 L 0 11z" fill="#000000" stroke="#000000" stroke-linejoin="round" stroke-width="2"/> 	  	</marker><marker id="_EF86EB6F-478E-4073-8F03-64E5CD7665F6start" refX="1" refY="5" markerUnits="userSpaceOnUse" markerWidth="17" markerHeight="11" orient="auto" fill="#000000" stroke="#000000"> 	  		<path id="_EF86EB6F-478E-4073-8F03-64E5CD7665F6conditional" d="M 0 5 L 8 0 L 16 5 L 8 10 L 0 5" fill="white" stroke="#000000" stroke-width="1" display="none"/> 			<path id="_EF86EB6F-478E-4073-8F03-64E5CD7665F6default" d="M 5 0 L 11 10" fill="white" stroke="#000000" stroke-width="1" display="none"/> 	  	</marker><marker id="_EF86EB6F-478E-4073-8F03-64E5CD7665F6end" refX="15" refY="6" markerUnits="userSpaceOnUse" markerWidth="15" markerHeight="12" orient="auto" fill="#000000" stroke="#000000"> 	  		<path id="_EF86EB6F-478E-4073-8F03-64E5CD7665F6frame2" d="M 0 1 L 15 6 L 0 11z" fill="#000000" stroke="#000000" stroke-linejoin="round" stroke-width="2"/> 	  	</marker><marker id="_A9FB215E-02A6-4657-B86D-1CA6ADF000B0start" refX="1" refY="5" markerUnits="userSpaceOnUse" markerWidth="17" markerHeight="11" orient="auto" fill="#000000" stroke="#000000"> 	  		<path id="_A9FB215E-02A6-4657-B86D-1CA6ADF000B0conditional" d="M 0 5 L 8 0 L 16 5 L 8 10 L 0 5" fill="white" stroke="#000000" stroke-width="1" display="none"/> 			<path id="_A9FB215E-02A6-4657-B86D-1CA6ADF000B0default" d="M 5 0 L 11 10" fill="white" stroke="#000000" stroke-width="1" display="none"/> 	  	</marker><marker id="_A9FB215E-02A6-4657-B86D-1CA6ADF000B0end" refX="15" refY="6" markerUnits="userSpaceOnUse" markerWidth="15" markerHeight="12" orient="auto" fill="#000000" stroke="#000000"> 	  		<path id="_A9FB215E-02A6-4657-B86D-1CA6ADF000B0frame2" d="M 0 1 L 15 6 L 0 11z" fill="#000000" stroke="#000000" stroke-linejoin="round" stroke-width="2"/> 	  	</marker><marker id="_3456DA21-3D18-4F2F-8247-145DF463CFB2start" refX="1" refY="5" markerUnits="userSpaceOnUse" markerWidth="17" markerHeight="11" orient="auto" fill="#000000" stroke="#000000"> 	  		<path id="_3456DA21-3D18-4F2F-8247-145DF463CFB2conditional" d="M 0 5 L 8 0 L 16 5 L 8 10 L 0 5" fill="white" stroke="#000000" stroke-width="1" display="none"/> 			<path id="_3456DA21-3D18-4F2F-8247-145DF463CFB2default" d="M 5 0 L 11 10" fill="white" stroke="#000000" stroke-width="1" display="none"/> 	  	</marker><marker id="_3456DA21-3D18-4F2F-8247-145DF463CFB2end" refX="15" refY="6" markerUnits="userSpaceOnUse" markerWidth="15" markerHeight="12" orient="auto" fill="#000000" stroke="#000000"> 	  		<path id="_3456DA21-3D18-4F2F-8247-145DF463CFB2frame2" d="M 0 1 L 15 6 L 0 11z" fill="#000000" stroke="#000000" stroke-linejoin="round" stroke-width="2"/> 	  	</marker><marker id="_BBF9DA1D-38F1-4A01-BFF6-E5A03BC72419start" refX="1" refY="5" markerUnits="userSpaceOnUse" markerWidth="17" markerHeight="11" orient="auto" fill="#000000" stroke="#000000"> 	  		<path id="_BBF9DA1D-38F1-4A01-BFF6-E5A03BC72419conditional" d="M 0 5 L 8 0 L 16 5 L 8 10 L 0 5" fill="white" stroke="#000000" stroke-width="1" display="none"/> 			<path id="_BBF9DA1D-38F1-4A01-BFF6-E5A03BC72419default" d="M 5 0 L 11 10" fill="white" stroke="#000000" stroke-width="1" display="none"/> 	  	</marker><marker id="_BBF9DA1D-38F1-4A01-BFF6-E5A03BC72419end" refX="15" refY="6" markerUnits="userSpaceOnUse" markerWidth="15" markerHeight="12" orient="auto" fill="#000000" stroke="#000000"> 	  		<path id="_BBF9DA1D-38F1-4A01-BFF6-E5A03BC72419frame2" d="M 0 1 L 15 6 L 0 11z" fill="#000000" stroke="#000000" stroke-linejoin="round" stroke-width="2"/> 	  	</marker><marker id="_AB02AB4B-6ED6-442D-A37D-9B1111C60111start" refX="1" refY="5" markerUnits="userSpaceOnUse" markerWidth="17" markerHeight="11" orient="auto" fill="#000000" stroke="#000000"> 	  		<path id="_AB02AB4B-6ED6-442D-A37D-9B1111C60111conditional" d="M 0 5 L 8 0 L 16 5 L 8 10 L 0 5" fill="white" stroke="#000000" stroke-width="1" display="none"/> 			<path id="_AB02AB4B-6ED6-442D-A37D-9B1111C60111default" d="M 5 0 L 11 10" fill="white" stroke="#000000" stroke-width="1" display="none"/> 	  	</marker><marker id="_AB02AB4B-6ED6-442D-A37D-9B1111C60111end" refX="15" refY="6" markerUnits="userSpaceOnUse" markerWidth="15" markerHeight="12" orient="auto" fill="#000000" stroke="#000000"> 	  		<path id="_AB02AB4B-6ED6-442D-A37D-9B1111C60111frame2" d="M 0 1 L 15 6 L 0 11z" fill="#000000" stroke="#000000" stroke-linejoin="round" stroke-width="2"/> 	  	</marker></defs><g stroke="none" font-family="Verdana, sans-serif" font-size-adjust="none" font-style="normal" font-variant="normal" font-weight="normal" line-heigth="normal" font-size="12"><g class="stencils" transform="translate(15, 16)"><g class="me"/><g class="children"><g id="_2FC18E59-17C2-484C-98C1-CC68FBE58C14" bpmn2nodeid="_DBA52200-9C92-46DD-8773-701B8C9C7EDE"><g class="stencils" transform="translate(480, 75)"><g class="me"><g pointer-events="fill" oryx:minimumSize="50 40" id="_2FC18E59-17C2-484C-98C1-CC68FBE58C14">   	<defs id="_2FC18E59-17C2-484C-98C1-CC68FBE58C14__2FC18E59-17C2-484C-98C1-CC68FBE58C14_17"> 		<radialGradient id="_2FC18E59-17C2-484C-98C1-CC68FBE58C14background" cx="10%" cy="10%" r="100%" fx="10%" fy="10%"> 			<stop offset="0%" stop-color="#ffffff" stop-opacity="1" id="_2FC18E59-17C2-484C-98C1-CC68FBE58C14__2FC18E59-17C2-484C-98C1-CC68FBE58C14_18"/> 			<stop id="_2FC18E59-17C2-484C-98C1-CC68FBE58C14fill_el" offset="100%" stop-color="#fafad2" stop-opacity="1"/> 		</radialGradient> 		<radialGradient id="_2FC18E59-17C2-484C-98C1-CC68FBE58C14borderbackground" cx="10%" cy="10%" r="100%" fx="10%" fy="10%"> 			<stop offset="0%" stop-color="#ffffff" stop-opacity="1" id="_2FC18E59-17C2-484C-98C1-CC68FBE58C14__2FC18E59-17C2-484C-98C1-CC68FBE58C14_19"/> 			<stop id="_2FC18E59-17C2-484C-98C1-CC68FBE58C14fill_border" offset="100%" stop-color="#000000" stop-opacity="1" stroke="#000000"/> 		</radialGradient> 	</defs> 	 	<rect id="_2FC18E59-17C2-484C-98C1-CC68FBE58C14text_frame" oryx:anchors="bottom top right left" x="1" y="1" width="142" height="90" rx="10" ry="10" stroke="none" stroke-width="0" fill="none"/> 	<rect id="_2FC18E59-17C2-484C-98C1-CC68FBE58C14bg_frame" oryx:resize="vertical horizontal" x="0" y="0" width="148" height="91" rx="10" ry="10" stroke="#000000" stroke-width="1" fill="url(#_2FC18E59-17C2-484C-98C1-CC68FBE58C14background) #ffffcc"/> 		<text font-size="12" id="_2FC18E59-17C2-484C-98C1-CC68FBE58C14text_name" x="74" y="45.5" oryx:align="middle center" oryx:fittoelem="text_frame" stroke="black" text-anchor="middle" stroke-width="0pt" letter-spacing="-0.01px" fill="#000000" transform="rotate(0 74 45.5)" visibility="inherit" oryx:fontSize="12"><tspan x="74" y="45.5" dy="-1">Firmar la autorizacion </tspan><tspan x="74" y="45.5" dy="11">de importacion</tspan></text>     <g id="_2FC18E59-17C2-484C-98C1-CC68FBE58C14manualTask" transform="scale(0.7,0.7) translate(8,8)" display="none">     	<path oryx:anchors="top left" id="_2FC18E59-17C2-484C-98C1-CC68FBE58C14frame" style="opacity:1;fill:none;fill-opacity:1;stroke-width:1" d="M0.5,3.751l4.083-3.25c0,0,11.166,0.083,12.083,0.083s-2.417,2.917-1.5,2.917     s11.667,0,12.584,0c1.166,1.708-0.168,3.167-0.834,3.667s0.875,1.917-1,4.417c-0.75,0.25,0.75,1.875-1.333,3.333     c-1.167,0.583,0.583,1.542-1.25,2.833c-1.167,0-20.833,0.083-20.833,0.083l-2-1.333V3.751z" stroke="#000000"/> 		<path id="_2FC18E59-17C2-484C-98C1-CC68FBE58C14frame2" oryx:anchors="top left" style="opacity:1;fill:none;stroke-width:2" d="M 13.5 7 L 27 7" stroke="#000000"/> 		<path id="_2FC18E59-17C2-484C-98C1-CC68FBE58C14frame3" oryx:anchors="top left" style="opacity:1;fill:none;stroke-width:2" d="M 13.5 11 L 26 11" stroke="#000000"/> 		<path id="_2FC18E59-17C2-484C-98C1-CC68FBE58C14frame4" oryx:anchors="top left" style="opacity:1;fill:none;stroke-width:1.5" d="M 14 14.5 L 25 14.5" stroke="#000000"/> 		<path id="_2FC18E59-17C2-484C-98C1-CC68FBE58C14frame5" oryx:anchors="top left" style="opacity:1;fill:none;stroke-width:1.5" d="M 8.2 3.1 L 15 3.1" stroke="#000000"/> 	</g> 	 	<g id="_2FC18E59-17C2-484C-98C1-CC68FBE58C14businessRuleTask" transform="scale(0.7,0.7) translate(8,8)" display="none"> 		<rect id="_2FC18E59-17C2-484C-98C1-CC68FBE58C14frame6" oryx:anchors="top left" x="0" y="0" width="22" height="4" style="opacity:1;fill:#B3B1B3;fill-opacity:1;" stroke="#000000"/> 		<rect id="_2FC18E59-17C2-484C-98C1-CC68FBE58C14frame7" oryx:anchors="top left" x="0" y="4" style="opacity:1;fill:none;" width="22" height="12" stroke="#000000"/> 		<path id="_2FC18E59-17C2-484C-98C1-CC68FBE58C14frame8" oryx:anchors="top left" style="opacity:1;fill:none;" d="M 0 10 L 22 10" stroke="#000000"/> 		<path id="_2FC18E59-17C2-484C-98C1-CC68FBE58C14frame9" oryx:anchors="top left" style="opacity:1; fill:none;" d="M 7 4 L 7 16" stroke="#000000"/> 	</g> 	 	<g id="_2FC18E59-17C2-484C-98C1-CC68FBE58C14scriptTask" transform="scale(0.7,0.7) translate(8,8)" display="none"> 		<path oryx:anchors="top left" id="_2FC18E59-17C2-484C-98C1-CC68FBE58C14frame10" style="opacity:1;fill:none;" stroke="#000000" d="M6.402,0.5h14.5c0,0-5.833,2.833-5.833,5.583s4.417,6,4.417,9.167    s-4.167,5.083-4.167,5.083H0.235c0,0,5-2.667,5-5s-4.583-6.75-4.583-9.25S6.402,0.5,6.402,0.5z"/> 		<path oryx:anchors="top left" id="_2FC18E59-17C2-484C-98C1-CC68FBE58C14frame11" style="opacity:1;fill:none;stroke-width:1.5" d="M 3.5 4.5 L 13.5 4.5" stroke="#000000"/> 		<path oryx:anchors="top left" id="_2FC18E59-17C2-484C-98C1-CC68FBE58C14frame12" style="opacity:1;fill:none;stroke-width:1.5" d="M 3.8 8.5 L 13.8 8.5" stroke="#000000"/> 		<path oryx:anchors="top left" id="_2FC18E59-17C2-484C-98C1-CC68FBE58C14frame13" style="opacity:1;fill:none;stroke-width:1.5" d="M 6.3 12.5 L 16.3 12.5" stroke="#000000"/> 		<path oryx:anchors="top left" id="_2FC18E59-17C2-484C-98C1-CC68FBE58C14frame14" style="opacity:1;fill:none;stroke-width:1.5" d="M 6.5 16.5 L 16.5 16.5" stroke="#000000"/> 	</g> 	 	<g id="_2FC18E59-17C2-484C-98C1-CC68FBE58C14userTask" transform="scale(0.7,0.7) translate(8,8)" display="inherit"> 		<path id="_2FC18E59-17C2-484C-98C1-CC68FBE58C14frame15" oryx:anchors="top left" style="opacity:1;fill:#F4F6F7" stroke="#000000" d="M0.585,24.167h24.083v-7.833c0,0-2.333-3.917-7.083-5.167h-9.25    c-4.417,1.333-7.833,5.75-7.833,5.75L0.585,24.167z"/> 		<path id="_2FC18E59-17C2-484C-98C1-CC68FBE58C14frame16" oryx:anchors="top left" style="opacity:1;fill:none" d="M 6 20 L 6 24" stroke="#000000"/> 		<path id="_2FC18E59-17C2-484C-98C1-CC68FBE58C14frame17" oryx:anchors="top left" style="opacity:1;fill:none" d="M 20 20 L 20 24" stroke="#000000"/> 		<circle id="_2FC18E59-17C2-484C-98C1-CC68FBE58C14frame18" oryx:anchors="top left" fill="black" cx="13.002" cy="5.916" r="5.417" stroke="#000000"/> 		<path id="_2FC18E59-17C2-484C-98C1-CC68FBE58C14frame19" oryx:anchors="top left" style="opacity:1;fill:#F0EFF0;" stroke="#000000" d="M8.043,7.083c0,0,2.814-2.426,5.376-1.807s4.624-0.693,4.624-0.693    c0.25,1.688,0.042,3.75-1.458,5.584c0,0,1.083,0.75,1.083,1.5s0.125,1.875-1,3s-5.5,1.25-6.75,0S8.668,12.834,8.668,12    s0.583-1.25,1.25-1.917C8.835,9.5,7.419,7.708,8.043,7.083z"/> 	</g> 	 	<g id="_2FC18E59-17C2-484C-98C1-CC68FBE58C14serviceTask" transform="scale(0.7,0.7) translate(8,8)" display="none"> 		<polygon oryx:anchors="top left" id="_2FC18E59-17C2-484C-98C1-CC68FBE58C14frame20" style="opacity:1;fill:#ffffff" stroke="#000000" points="15.392,5.064 17.954,2.502 20.347,4.895 17.786,7.455     18.729,9.732 22.353,9.732 22.353,13.115 18.731,13.115 17.788,15.392 20.351,17.955 17.958,20.347 15.397,17.786 13.12,18.729     13.12,22.353 9.737,22.353 9.737,18.731 7.46,17.788 4.897,20.35 2.506,17.958 5.066,15.397 4.124,13.12 0.5,13.12 0.5,9.737     4.121,9.737 5.065,7.461 2.503,4.898 4.895,2.506 7.455,5.066 9.732,4.125 9.732,0.5 13.116,0.5 13.116,4.121 "/> 		<circle oryx:anchors="top left" id="_2FC18E59-17C2-484C-98C1-CC68FBE58C14frame21" style="opacity:1;fill:none" stroke="#000000" cx="11.427" cy="11.426" r="3.714"/> 		<polygon oryx:anchors="top left" id="_2FC18E59-17C2-484C-98C1-CC68FBE58C14frame22" style="opacity:1;fill:#ffffff" stroke="#000000" points="21.392,11.064 23.954,8.502 26.347,10.895 23.786,13.455     24.729,15.732 28.353,15.732 28.353,19.115 24.731,19.115 23.788,21.392 26.351,23.955 23.958,26.347 21.397,23.786 19.12,24.729     19.12,28.353 15.737,28.353 15.737,24.731 13.46,23.788 10.897,26.35 8.506,23.958 11.066,21.397 10.124,19.12 6.5,19.12     6.5,15.737 10.121,15.737 11.065,13.461 8.503,10.898 10.895,8.506 13.455,11.066 15.732,10.125 15.732,6.5 19.116,6.5     19.116,10.121 "/> 		<circle oryx:anchors="top left" id="_2FC18E59-17C2-484C-98C1-CC68FBE58C14frame23" style="opacity:1;fill:none;" stroke="#000000" cx="17.427" cy="17.426" r="3.714"/> 	</g> 	 	<g id="_2FC18E59-17C2-484C-98C1-CC68FBE58C14sendTask" display="none"> 		<path id="_2FC18E59-17C2-484C-98C1-CC68FBE58C14stframe24" oryx:anchors="left top" stroke="#FFFFFF" fill="black" stroke-width="1" d="M8,11 L8,21 L24,21 L24,11 L16,17z"/> 		<path id="_2FC18E59-17C2-484C-98C1-CC68FBE58C14stframe25" oryx:anchors="left top" stroke="#FFFFFF" fill="black" stroke-width="1" d="M7,10 L16,17 L25 10z"/> 	</g> 	 	<g id="_2FC18E59-17C2-484C-98C1-CC68FBE58C14receiveTask" display="none"> 		<path id="_2FC18E59-17C2-484C-98C1-CC68FBE58C14frame26" oryx:anchors="left top" stroke="#000000" fill="none" stroke-width="1" d="M8,11 L8,21 L24,21 L24,11z M8,11 L16,17 L24,11"/> 	</g> 	 	<g id="_2FC18E59-17C2-484C-98C1-CC68FBE58C14none" display="inherit"/>  	<g id="_2FC18E59-17C2-484C-98C1-CC68FBE58C14sequential" display="none">         <path oryx:anchors="bottom" fill="none" stroke="#000000" stroke-width="2" d=" M70.48 87  h10  M70.48 83  h10  M70.48 79  h10 " id="_2FC18E59-17C2-484C-98C1-CC68FBE58C14__2FC18E59-17C2-484C-98C1-CC68FBE58C14_20"/>     </g>   </g></g><g class="children" style="overflow:hidden"/><g class="edge"/></g><g class="controls"><g class="dockers"/><g class="magnets" transform="translate(480, 75)"><g pointer-events="all" display="none" transform="translate(-7, 14.75)"><circle cx="8" cy="8" r="4" stroke="none" fill="red" fill-opacity="0.3"/></g><g pointer-events="all" display="none" transform="translate(-7, 37.5)"><circle cx="8" cy="8" r="4" stroke="none" fill="red" fill-opacity="0.3"/></g><g pointer-events="all" display="none" transform="translate(-7, 60.25)"><circle cx="8" cy="8" r="4" stroke="none" fill="red" fill-opacity="0.3"/></g><g pointer-events="all" display="none" transform="translate(29, 82)"><circle cx="8" cy="8" r="4" stroke="none" fill="red" fill-opacity="0.3"/></g><g pointer-events="all" display="none" transform="translate(66, 82)"><circle cx="8" cy="8" r="4" stroke="none" fill="red" fill-opacity="0.3"/></g><g pointer-events="all" display="none" transform="translate(103, 82)"><circle cx="8" cy="8" r="4" stroke="none" fill="red" fill-opacity="0.3"/></g><g pointer-events="all" display="none" transform="translate(139, 14.75)"><circle cx="8" cy="8" r="4" stroke="none" fill="red" fill-opacity="0.3"/></g><g pointer-events="all" display="none" transform="translate(139, 37.5)"><circle cx="8" cy="8" r="4" stroke="none" fill="red" fill-opacity="0.3"/></g><g pointer-events="all" display="none" transform="translate(139, 60.25)"><circle cx="8" cy="8" r="4" stroke="none" fill="red" fill-opacity="0.3"/></g><g pointer-events="all" display="none" transform="translate(29, -7)"><circle cx="8" cy="8" r="4" stroke="none" fill="red" fill-opacity="0.3"/></g><g pointer-events="all" display="none" transform="translate(66, -7)"><circle cx="8" cy="8" r="4" stroke="none" fill="red" fill-opacity="0.3"/></g><g pointer-events="all" display="none" transform="translate(103, -7)"><circle cx="8" cy="8" r="4" stroke="none" fill="red" fill-opacity="0.3"/></g><g pointer-events="all" display="none" transform="translate(66, 37.5)"><circle cx="8" cy="8" r="4" stroke="none" fill="red" fill-opacity="0.3"/></g></g></g></g><g id="_FFC5B94E-F59B-40B9-BA05-ECB5B4E7D9C9" bpmn2nodeid="_8E771CF0-7E12-4D76-AA13-212AAFB78933"><g class="stencils" transform="translate(967, 178)"><g class="me"><g pointer-events="fill" id="_FFC5B94E-F59B-40B9-BA05-ECB5B4E7D9C9">       <defs id="_FFC5B94E-F59B-40B9-BA05-ECB5B4E7D9C9__FFC5B94E-F59B-40B9-BA05-ECB5B4E7D9C9_5"> 		<radialGradient id="_FFC5B94E-F59B-40B9-BA05-ECB5B4E7D9C9background" cx="10%" cy="10%" r="100%" fx="10%" fy="10%"> 			<stop offset="0%" stop-color="#ffffff" stop-opacity="1" id="_FFC5B94E-F59B-40B9-BA05-ECB5B4E7D9C9__FFC5B94E-F59B-40B9-BA05-ECB5B4E7D9C9_6"/> 			<stop id="_FFC5B94E-F59B-40B9-BA05-ECB5B4E7D9C9fill_el" offset="100%" stop-color="#ff6347" stop-opacity="1"/> 		</radialGradient> 		<radialGradient id="_FFC5B94E-F59B-40B9-BA05-ECB5B4E7D9C9borderbackground" cx="10%" cy="10%" r="100%" fx="10%" fy="10%"> 			<stop offset="0%" stop-color="#ffffff" stop-opacity="1" id="_FFC5B94E-F59B-40B9-BA05-ECB5B4E7D9C9__FFC5B94E-F59B-40B9-BA05-ECB5B4E7D9C9_7"/> 			<stop id="_FFC5B94E-F59B-40B9-BA05-ECB5B4E7D9C9fill_border" offset="100%" stop-color="#000000" stop-opacity="1" stroke="#000000"/> 		</radialGradient> 	</defs> 	     <circle id="_FFC5B94E-F59B-40B9-BA05-ECB5B4E7D9C9bg_frame" cx="14" cy="14" r="14" stroke="#000000" fill="url(#_FFC5B94E-F59B-40B9-BA05-ECB5B4E7D9C9background) white" stroke-width="3"/>          <circle id="_FFC5B94E-F59B-40B9-BA05-ECB5B4E7D9C9frame" cx="14" cy="14" r="9" stroke="#000000" fill="url(#_FFC5B94E-F59B-40B9-BA05-ECB5B4E7D9C9borderbackground)" stroke-width="1"/> 	<text font-size="11" id="_FFC5B94E-F59B-40B9-BA05-ECB5B4E7D9C9text_name" x="14" y="30" oryx:align="top center" stroke="black" stroke-width="0pt" letter-spacing="-0.01px" fill="#000000" text-anchor="middle" transform="rotate(0 14 30)" visibility="inherit" oryx:fontSize="11"/>   </g></g><g class="children" style="overflow:hidden"/><g class="edge"/></g><g class="controls"><g class="dockers"/><g class="magnets" transform="translate(967, 178)"><g pointer-events="all" display="none" transform="translate(6, 6)"><circle cx="8" cy="8" r="4" stroke="none" fill="red" fill-opacity="0.3"/></g></g></g></g><g id="_92CE28E8-51A2-4439-8BF2-CBD3A80D50DC" bpmn2nodeid="_D0624FA4-D2E2-4CD3-85E9-79A893975F02"><g class="stencils" transform="translate(405, 180)"><g class="me"><g id="_92CE28E8-51A2-4439-8BF2-CBD3A80D50DC">        <defs id="_92CE28E8-51A2-4439-8BF2-CBD3A80D50DC__92CE28E8-51A2-4439-8BF2-CBD3A80D50DC_4"> 		<radialGradient id="_92CE28E8-51A2-4439-8BF2-CBD3A80D50DCbackground" cx="10%" cy="10%" r="100%" fx="10%" fy="10%"> 			<stop offset="0%" stop-color="#ffffff" stop-opacity="1" id="_92CE28E8-51A2-4439-8BF2-CBD3A80D50DC__92CE28E8-51A2-4439-8BF2-CBD3A80D50DC_5"/> 			<stop id="_92CE28E8-51A2-4439-8BF2-CBD3A80D50DCfill_el" offset="100%" stop-color="#f0e68c" stop-opacity="1"/> 		</radialGradient> 		<radialGradient id="_92CE28E8-51A2-4439-8BF2-CBD3A80D50DCborderbackground" cx="10%" cy="10%" r="100%" fx="10%" fy="10%"> 			<stop offset="0%" stop-color="#ffffff" stop-opacity="1" id="_92CE28E8-51A2-4439-8BF2-CBD3A80D50DC__92CE28E8-51A2-4439-8BF2-CBD3A80D50DC_6"/> 			<stop id="_92CE28E8-51A2-4439-8BF2-CBD3A80D50DCfill_border" offset="100%" stop-color="#a67f00" stop-opacity="1" stroke="#a67f00"/> 		</radialGradient> 	</defs> 	     <path d=" M0 20.5  L20.5 0  L40 20.5  L20.5 40  z" id="_92CE28E8-51A2-4439-8BF2-CBD3A80D50DCbg_frame" fill="url(#_92CE28E8-51A2-4439-8BF2-CBD3A80D50DCbackground) white" style="stroke-width:1" stroke="#a67f00"/>     <g id="_92CE28E8-51A2-4439-8BF2-CBD3A80D50DCframe" stroke="#a67f00">       <path id="_92CE28E8-51A2-4439-8BF2-CBD3A80D50DCframe2" d=" M13.25 12.05  L17.25 12.05  L27.65 28.95  L23.75 28.95  z" style="stroke-width:1" stroke="#a67f00" fill="url(#_92CE28E8-51A2-4439-8BF2-CBD3A80D50DCborderbackground)"/>       <path id="_92CE28E8-51A2-4439-8BF2-CBD3A80D50DCframe3" d=" M13.25 28.95  L23.75 12.05  L27.65 12.05  L17.25 28.95  z" style="stroke-width:1" stroke="#a67f00" fill="url(#_92CE28E8-51A2-4439-8BF2-CBD3A80D50DCborderbackground)"/>     </g> 	 	<text id="_92CE28E8-51A2-4439-8BF2-CBD3A80D50DCtext_name" x="30.5" y="30.5" oryx:align="left top" stroke-width="0pt" letter-spacing="-0.01px" fill="#000000" text-anchor="start" transform="rotate(0 30.5 30.5)" visibility="inherit" oryx:fontSize="12"><tspan x="30.5" y="30.5" dy="12">Es una emisión?</tspan></text> 	   </g></g><g class="children" style="overflow:hidden"/><g class="edge"/></g><g class="controls"><g class="dockers"/><g class="magnets" transform="translate(405, 180)"><g pointer-events="all" display="none" transform="translate(12.5, 12.5)"><circle cx="8" cy="8" r="4" stroke="none" fill="red" fill-opacity="0.3"/></g></g></g></g><g id="_FBDE13CF-37D8-4EB2-9A16-353838932FC2" bpmn2nodeid="_09756F4C-7427-4B7B-B5EF-C8BEF36B747A"><g class="stencils" transform="translate(480, 239)"><g class="me"><g pointer-events="fill" oryx:minimumSize="50 40" id="_FBDE13CF-37D8-4EB2-9A16-353838932FC2">   	<defs id="_FBDE13CF-37D8-4EB2-9A16-353838932FC2__FBDE13CF-37D8-4EB2-9A16-353838932FC2_17"> 		<radialGradient id="_FBDE13CF-37D8-4EB2-9A16-353838932FC2background" cx="10%" cy="10%" r="100%" fx="10%" fy="10%"> 			<stop offset="0%" stop-color="#ffffff" stop-opacity="1" id="_FBDE13CF-37D8-4EB2-9A16-353838932FC2__FBDE13CF-37D8-4EB2-9A16-353838932FC2_18"/> 			<stop id="_FBDE13CF-37D8-4EB2-9A16-353838932FC2fill_el" offset="100%" stop-color="#fafad2" stop-opacity="1"/> 		</radialGradient> 		<radialGradient id="_FBDE13CF-37D8-4EB2-9A16-353838932FC2borderbackground" cx="10%" cy="10%" r="100%" fx="10%" fy="10%"> 			<stop offset="0%" stop-color="#ffffff" stop-opacity="1" id="_FBDE13CF-37D8-4EB2-9A16-353838932FC2__FBDE13CF-37D8-4EB2-9A16-353838932FC2_19"/> 			<stop id="_FBDE13CF-37D8-4EB2-9A16-353838932FC2fill_border" offset="100%" stop-color="#000000" stop-opacity="1" stroke="#000000"/> 		</radialGradient> 	</defs> 	 	<rect id="_FBDE13CF-37D8-4EB2-9A16-353838932FC2text_frame" oryx:anchors="bottom top right left" x="1" y="1" width="142" height="90" rx="10" ry="10" stroke="none" stroke-width="0" fill="none"/> 	<rect id="_FBDE13CF-37D8-4EB2-9A16-353838932FC2bg_frame" oryx:resize="vertical horizontal" x="0" y="0" width="148" height="91" rx="10" ry="10" stroke="#000000" stroke-width="1" fill="url(#_FBDE13CF-37D8-4EB2-9A16-353838932FC2background) #ffffcc"/> 		<text font-size="12" id="_FBDE13CF-37D8-4EB2-9A16-353838932FC2text_name" x="74" y="45.5" oryx:align="middle center" oryx:fittoelem="text_frame" stroke="black" text-anchor="middle" stroke-width="0pt" letter-spacing="-0.01px" fill="#000000" transform="rotate(0 74 45.5)" visibility="inherit" oryx:fontSize="12"><tspan x="74" y="45.5" dy="-1">Firmar la corrección de </tspan><tspan x="74" y="45.5" dy="11">importación</tspan></text>     <g id="_FBDE13CF-37D8-4EB2-9A16-353838932FC2manualTask" transform="scale(0.7,0.7) translate(8,8)" display="none">     	<path oryx:anchors="top left" id="_FBDE13CF-37D8-4EB2-9A16-353838932FC2frame" style="opacity:1;fill:none;fill-opacity:1;stroke-width:1" d="M0.5,3.751l4.083-3.25c0,0,11.166,0.083,12.083,0.083s-2.417,2.917-1.5,2.917     s11.667,0,12.584,0c1.166,1.708-0.168,3.167-0.834,3.667s0.875,1.917-1,4.417c-0.75,0.25,0.75,1.875-1.333,3.333     c-1.167,0.583,0.583,1.542-1.25,2.833c-1.167,0-20.833,0.083-20.833,0.083l-2-1.333V3.751z" stroke="#000000"/> 		<path id="_FBDE13CF-37D8-4EB2-9A16-353838932FC2frame2" oryx:anchors="top left" style="opacity:1;fill:none;stroke-width:2" d="M 13.5 7 L 27 7" stroke="#000000"/> 		<path id="_FBDE13CF-37D8-4EB2-9A16-353838932FC2frame3" oryx:anchors="top left" style="opacity:1;fill:none;stroke-width:2" d="M 13.5 11 L 26 11" stroke="#000000"/> 		<path id="_FBDE13CF-37D8-4EB2-9A16-353838932FC2frame4" oryx:anchors="top left" style="opacity:1;fill:none;stroke-width:1.5" d="M 14 14.5 L 25 14.5" stroke="#000000"/> 		<path id="_FBDE13CF-37D8-4EB2-9A16-353838932FC2frame5" oryx:anchors="top left" style="opacity:1;fill:none;stroke-width:1.5" d="M 8.2 3.1 L 15 3.1" stroke="#000000"/> 	</g> 	 	<g id="_FBDE13CF-37D8-4EB2-9A16-353838932FC2businessRuleTask" transform="scale(0.7,0.7) translate(8,8)" display="none"> 		<rect id="_FBDE13CF-37D8-4EB2-9A16-353838932FC2frame6" oryx:anchors="top left" x="0" y="0" width="22" height="4" style="opacity:1;fill:#B3B1B3;fill-opacity:1;" stroke="#000000"/> 		<rect id="_FBDE13CF-37D8-4EB2-9A16-353838932FC2frame7" oryx:anchors="top left" x="0" y="4" style="opacity:1;fill:none;" width="22" height="12" stroke="#000000"/> 		<path id="_FBDE13CF-37D8-4EB2-9A16-353838932FC2frame8" oryx:anchors="top left" style="opacity:1;fill:none;" d="M 0 10 L 22 10" stroke="#000000"/> 		<path id="_FBDE13CF-37D8-4EB2-9A16-353838932FC2frame9" oryx:anchors="top left" style="opacity:1; fill:none;" d="M 7 4 L 7 16" stroke="#000000"/> 	</g> 	 	<g id="_FBDE13CF-37D8-4EB2-9A16-353838932FC2scriptTask" transform="scale(0.7,0.7) translate(8,8)" display="none"> 		<path oryx:anchors="top left" id="_FBDE13CF-37D8-4EB2-9A16-353838932FC2frame10" style="opacity:1;fill:none;" stroke="#000000" d="M6.402,0.5h14.5c0,0-5.833,2.833-5.833,5.583s4.417,6,4.417,9.167    s-4.167,5.083-4.167,5.083H0.235c0,0,5-2.667,5-5s-4.583-6.75-4.583-9.25S6.402,0.5,6.402,0.5z"/> 		<path oryx:anchors="top left" id="_FBDE13CF-37D8-4EB2-9A16-353838932FC2frame11" style="opacity:1;fill:none;stroke-width:1.5" d="M 3.5 4.5 L 13.5 4.5" stroke="#000000"/> 		<path oryx:anchors="top left" id="_FBDE13CF-37D8-4EB2-9A16-353838932FC2frame12" style="opacity:1;fill:none;stroke-width:1.5" d="M 3.8 8.5 L 13.8 8.5" stroke="#000000"/> 		<path oryx:anchors="top left" id="_FBDE13CF-37D8-4EB2-9A16-353838932FC2frame13" style="opacity:1;fill:none;stroke-width:1.5" d="M 6.3 12.5 L 16.3 12.5" stroke="#000000"/> 		<path oryx:anchors="top left" id="_FBDE13CF-37D8-4EB2-9A16-353838932FC2frame14" style="opacity:1;fill:none;stroke-width:1.5" d="M 6.5 16.5 L 16.5 16.5" stroke="#000000"/> 	</g> 	 	<g id="_FBDE13CF-37D8-4EB2-9A16-353838932FC2userTask" transform="scale(0.7,0.7) translate(8,8)" display="inherit"> 		<path id="_FBDE13CF-37D8-4EB2-9A16-353838932FC2frame15" oryx:anchors="top left" style="opacity:1;fill:#F4F6F7" stroke="#000000" d="M0.585,24.167h24.083v-7.833c0,0-2.333-3.917-7.083-5.167h-9.25    c-4.417,1.333-7.833,5.75-7.833,5.75L0.585,24.167z"/> 		<path id="_FBDE13CF-37D8-4EB2-9A16-353838932FC2frame16" oryx:anchors="top left" style="opacity:1;fill:none" d="M 6 20 L 6 24" stroke="#000000"/> 		<path id="_FBDE13CF-37D8-4EB2-9A16-353838932FC2frame17" oryx:anchors="top left" style="opacity:1;fill:none" d="M 20 20 L 20 24" stroke="#000000"/> 		<circle id="_FBDE13CF-37D8-4EB2-9A16-353838932FC2frame18" oryx:anchors="top left" fill="black" cx="13.002" cy="5.916" r="5.417" stroke="#000000"/> 		<path id="_FBDE13CF-37D8-4EB2-9A16-353838932FC2frame19" oryx:anchors="top left" style="opacity:1;fill:#F0EFF0;" stroke="#000000" d="M8.043,7.083c0,0,2.814-2.426,5.376-1.807s4.624-0.693,4.624-0.693    c0.25,1.688,0.042,3.75-1.458,5.584c0,0,1.083,0.75,1.083,1.5s0.125,1.875-1,3s-5.5,1.25-6.75,0S8.668,12.834,8.668,12    s0.583-1.25,1.25-1.917C8.835,9.5,7.419,7.708,8.043,7.083z"/> 	</g> 	 	<g id="_FBDE13CF-37D8-4EB2-9A16-353838932FC2serviceTask" transform="scale(0.7,0.7) translate(8,8)" display="none"> 		<polygon oryx:anchors="top left" id="_FBDE13CF-37D8-4EB2-9A16-353838932FC2frame20" style="opacity:1;fill:#ffffff" stroke="#000000" points="15.392,5.064 17.954,2.502 20.347,4.895 17.786,7.455     18.729,9.732 22.353,9.732 22.353,13.115 18.731,13.115 17.788,15.392 20.351,17.955 17.958,20.347 15.397,17.786 13.12,18.729     13.12,22.353 9.737,22.353 9.737,18.731 7.46,17.788 4.897,20.35 2.506,17.958 5.066,15.397 4.124,13.12 0.5,13.12 0.5,9.737     4.121,9.737 5.065,7.461 2.503,4.898 4.895,2.506 7.455,5.066 9.732,4.125 9.732,0.5 13.116,0.5 13.116,4.121 "/> 		<circle oryx:anchors="top left" id="_FBDE13CF-37D8-4EB2-9A16-353838932FC2frame21" style="opacity:1;fill:none" stroke="#000000" cx="11.427" cy="11.426" r="3.714"/> 		<polygon oryx:anchors="top left" id="_FBDE13CF-37D8-4EB2-9A16-353838932FC2frame22" style="opacity:1;fill:#ffffff" stroke="#000000" points="21.392,11.064 23.954,8.502 26.347,10.895 23.786,13.455     24.729,15.732 28.353,15.732 28.353,19.115 24.731,19.115 23.788,21.392 26.351,23.955 23.958,26.347 21.397,23.786 19.12,24.729     19.12,28.353 15.737,28.353 15.737,24.731 13.46,23.788 10.897,26.35 8.506,23.958 11.066,21.397 10.124,19.12 6.5,19.12     6.5,15.737 10.121,15.737 11.065,13.461 8.503,10.898 10.895,8.506 13.455,11.066 15.732,10.125 15.732,6.5 19.116,6.5     19.116,10.121 "/> 		<circle oryx:anchors="top left" id="_FBDE13CF-37D8-4EB2-9A16-353838932FC2frame23" style="opacity:1;fill:none;" stroke="#000000" cx="17.427" cy="17.426" r="3.714"/> 	</g> 	 	<g id="_FBDE13CF-37D8-4EB2-9A16-353838932FC2sendTask" display="none"> 		<path id="_FBDE13CF-37D8-4EB2-9A16-353838932FC2stframe24" oryx:anchors="left top" stroke="#FFFFFF" fill="black" stroke-width="1" d="M8,11 L8,21 L24,21 L24,11 L16,17z"/> 		<path id="_FBDE13CF-37D8-4EB2-9A16-353838932FC2stframe25" oryx:anchors="left top" stroke="#FFFFFF" fill="black" stroke-width="1" d="M7,10 L16,17 L25 10z"/> 	</g> 	 	<g id="_FBDE13CF-37D8-4EB2-9A16-353838932FC2receiveTask" display="none"> 		<path id="_FBDE13CF-37D8-4EB2-9A16-353838932FC2frame26" oryx:anchors="left top" stroke="#000000" fill="none" stroke-width="1" d="M8,11 L8,21 L24,21 L24,11z M8,11 L16,17 L24,11"/> 	</g> 	 	<g id="_FBDE13CF-37D8-4EB2-9A16-353838932FC2none" display="inherit"/>  	<g id="_FBDE13CF-37D8-4EB2-9A16-353838932FC2sequential" display="none">         <path oryx:anchors="bottom" fill="none" stroke="#000000" stroke-width="2" d=" M70.48 87  h10  M70.48 83  h10  M70.48 79  h10 " id="_FBDE13CF-37D8-4EB2-9A16-353838932FC2__FBDE13CF-37D8-4EB2-9A16-353838932FC2_20"/>     </g>   </g></g><g class="children" style="overflow:hidden"/><g class="edge"/></g><g class="controls"><g class="dockers"/><g class="magnets" transform="translate(480, 239)"><g pointer-events="all" display="none" transform="translate(-7, 14.75)"><circle cx="8" cy="8" r="4" stroke="none" fill="red" fill-opacity="0.3"/></g><g pointer-events="all" display="none" transform="translate(-7, 37.5)"><circle cx="8" cy="8" r="4" stroke="none" fill="red" fill-opacity="0.3"/></g><g pointer-events="all" display="none" transform="translate(-7, 60.25)"><circle cx="8" cy="8" r="4" stroke="none" fill="red" fill-opacity="0.3"/></g><g pointer-events="all" display="none" transform="translate(29, 82)"><circle cx="8" cy="8" r="4" stroke="none" fill="red" fill-opacity="0.3"/></g><g pointer-events="all" display="none" transform="translate(66, 82)"><circle cx="8" cy="8" r="4" stroke="none" fill="red" fill-opacity="0.3"/></g><g pointer-events="all" display="none" transform="translate(103, 82)"><circle cx="8" cy="8" r="4" stroke="none" fill="red" fill-opacity="0.3"/></g><g pointer-events="all" display="none" transform="translate(139, 14.75)"><circle cx="8" cy="8" r="4" stroke="none" fill="red" fill-opacity="0.3"/></g><g pointer-events="all" display="none" transform="translate(139, 37.5)"><circle cx="8" cy="8" r="4" stroke="none" fill="red" fill-opacity="0.3"/></g><g pointer-events="all" display="none" transform="translate(139, 60.25)"><circle cx="8" cy="8" r="4" stroke="none" fill="red" fill-opacity="0.3"/></g><g pointer-events="all" display="none" transform="translate(29, -7)"><circle cx="8" cy="8" r="4" stroke="none" fill="red" fill-opacity="0.3"/></g><g pointer-events="all" display="none" transform="translate(66, -7)"><circle cx="8" cy="8" r="4" stroke="none" fill="red" fill-opacity="0.3"/></g><g pointer-events="all" display="none" transform="translate(103, -7)"><circle cx="8" cy="8" r="4" stroke="none" fill="red" fill-opacity="0.3"/></g><g pointer-events="all" display="none" transform="translate(66, 37.5)"><circle cx="8" cy="8" r="4" stroke="none" fill="red" fill-opacity="0.3"/></g></g></g></g><g id="_352B1E82-5145-40D7-BA1D-C08A5E31F3D9" bpmn2nodeid="_FC3A8B04-D9C9-427C-B1DE-7FDE9C9B7583"><g class="stencils" transform="translate(885, 180)"><g class="me"><g id="_352B1E82-5145-40D7-BA1D-C08A5E31F3D9">        <defs id="_352B1E82-5145-40D7-BA1D-C08A5E31F3D9__352B1E82-5145-40D7-BA1D-C08A5E31F3D9_4"> 		<radialGradient id="_352B1E82-5145-40D7-BA1D-C08A5E31F3D9background" cx="10%" cy="10%" r="100%" fx="10%" fy="10%"> 			<stop offset="0%" stop-color="#ffffff" stop-opacity="1" id="_352B1E82-5145-40D7-BA1D-C08A5E31F3D9__352B1E82-5145-40D7-BA1D-C08A5E31F3D9_5"/> 			<stop id="_352B1E82-5145-40D7-BA1D-C08A5E31F3D9fill_el" offset="100%" stop-color="#f0e68c" stop-opacity="1"/> 		</radialGradient> 		<radialGradient id="_352B1E82-5145-40D7-BA1D-C08A5E31F3D9borderbackground" cx="10%" cy="10%" r="100%" fx="10%" fy="10%"> 			<stop offset="0%" stop-color="#ffffff" stop-opacity="1" id="_352B1E82-5145-40D7-BA1D-C08A5E31F3D9__352B1E82-5145-40D7-BA1D-C08A5E31F3D9_6"/> 			<stop id="_352B1E82-5145-40D7-BA1D-C08A5E31F3D9fill_border" offset="100%" stop-color="#a67f00" stop-opacity="1" stroke="#a67f00"/> 		</radialGradient> 	</defs> 	     <path d=" M0 20.5  L20.5 0  L40 20.5  L20.5 40  z" id="_352B1E82-5145-40D7-BA1D-C08A5E31F3D9bg_frame" fill="url(#_352B1E82-5145-40D7-BA1D-C08A5E31F3D9background) white" style="stroke-width:1" stroke="#a67f00"/>     <g id="_352B1E82-5145-40D7-BA1D-C08A5E31F3D9frame" stroke="#a67f00">       <path id="_352B1E82-5145-40D7-BA1D-C08A5E31F3D9frame2" d=" M13.25 12.05  L17.25 12.05  L27.65 28.95  L23.75 28.95  z" style="stroke-width:1" stroke="#a67f00" fill="url(#_352B1E82-5145-40D7-BA1D-C08A5E31F3D9borderbackground)"/>       <path id="_352B1E82-5145-40D7-BA1D-C08A5E31F3D9frame3" d=" M13.25 28.95  L23.75 12.05  L27.65 12.05  L17.25 28.95  z" style="stroke-width:1" stroke="#a67f00" fill="url(#_352B1E82-5145-40D7-BA1D-C08A5E31F3D9borderbackground)"/>     </g> 	 	<text id="_352B1E82-5145-40D7-BA1D-C08A5E31F3D9text_name" x="30.5" y="30.5" oryx:align="left top" stroke-width="0pt" letter-spacing="-0.01px" fill="#000000" text-anchor="start" transform="rotate(0 30.5 30.5)" visibility="inherit" oryx:fontSize="12"/> 	   </g></g><g class="children" style="overflow:hidden"/><g class="edge"/></g><g class="controls"><g class="dockers"/><g class="magnets" transform="translate(885, 180)"><g pointer-events="all" display="none" transform="translate(12.5, 12.5)"><circle cx="8" cy="8" r="4" stroke="none" fill="red" fill-opacity="0.3"/></g></g></g></g><g id="_6EA676A7-F385-49AA-9EC5-CD3D1BB3005E" bpmn2nodeid="_B17C9173-7DA3-4C06-800C-E7A67BDBA297"><g class="stencils" transform="translate(126, 187)"><g class="me"><g pointer-events="fill" id="_6EA676A7-F385-49AA-9EC5-CD3D1BB3005E">        <defs id="_6EA676A7-F385-49AA-9EC5-CD3D1BB3005E__6EA676A7-F385-49AA-9EC5-CD3D1BB3005E_5"> 		<radialGradient id="_6EA676A7-F385-49AA-9EC5-CD3D1BB3005Ebackground" cx="10%" cy="10%" r="100%" fx="10%" fy="10%"> 			<stop offset="0%" stop-color="#ffffff" stop-opacity="1" id="_6EA676A7-F385-49AA-9EC5-CD3D1BB3005E__6EA676A7-F385-49AA-9EC5-CD3D1BB3005E_6"/> 			<stop id="_6EA676A7-F385-49AA-9EC5-CD3D1BB3005Efill_el" offset="100%" stop-color="#9acd32" stop-opacity="1"/> 		</radialGradient> 	</defs> 	     <circle id="_6EA676A7-F385-49AA-9EC5-CD3D1BB3005Ebg_frame" cx="15" cy="15" r="15" stroke="#000000" fill="url(#_6EA676A7-F385-49AA-9EC5-CD3D1BB3005Ebackground) white" stroke-width="1" style="stroke-dasharray: 5.5, 3"/>      <circle id="_6EA676A7-F385-49AA-9EC5-CD3D1BB3005Eframe" cx="15" cy="15" r="15" stroke="#000000" fill="none" stroke-width="1" display="inherit"/>  	<text font-size="11" id="_6EA676A7-F385-49AA-9EC5-CD3D1BB3005Etext_name" x="15" y="32" oryx:align="top center" stroke="black" stroke-width="0pt" letter-spacing="-0.01px" fill="#000000" text-anchor="middle" transform="rotate(0 15 32)" visibility="inherit" oryx:fontSize="11"/>   </g></g><g class="children" style="overflow:hidden"/><g class="edge"/></g><g class="controls"><g class="dockers"/><g class="magnets" transform="translate(126, 187)"><g pointer-events="all" display="none" transform="translate(7, 7)"><circle cx="8" cy="8" r="4" stroke="none" fill="red" fill-opacity="0.3"/></g></g></g></g></g><g class="edge"><g id="_E253FE7E-C7C1-4943-9CC8-B95E3C4B82BA" bpmn2nodeid="_1A1041D6-0FDF-453D-83DA-3675A963F660"><g class="stencils"><g class="me"><g pointer-events="painted" bpmn2nodeid="_50462934-E8D7-4C2D-9E49-2F0102F7C0A4"><path id="_E253FE7E-C7C1-4943-9CC8-B95E3C4B82BA_1" d="M628.2890615025232 120.39507194703033L908 120 L905.7405986605891 180.25070238429083 " stroke="#000000" fill="none" stroke-width="2" stroke-linecap="round" stroke-linejoin="round" marker-start="url(#_E253FE7E-C7C1-4943-9CC8-B95E3C4B82BAstart)" marker-end="url(#_E253FE7E-C7C1-4943-9CC8-B95E3C4B82BAend)"/></g><text id="_E253FE7E-C7C1-4943-9CC8-B95E3C4B82BAtext_name" font-size="12" x="642.2890615025232" y="106.39507194703033" oryx:edgePosition="startTop" stroke-width="0pt" letter-spacing="-0.01px" fill="#000000" text-anchor="start" transform="rotate(359.9190738115646 628.2890615025232 120.39507194703033)" visibility="inherit" oryx:fontSize="12"/></g><g class="children" style="overflow:hidden"/><g class="edge"/></g><g class="controls"><g class="dockers"/><g class="magnets"/></g></g><g id="_EF86EB6F-478E-4073-8F03-64E5CD7665F6" bpmn2nodeid="_552D7C9B-CCC2-4D5E-BA63-BDAF49320197"><g class="stencils"><g class="me"><g pointer-events="painted" bpmn2nodeid="_8493055A-AB13-4367-9E58-CCF95FA13F7D"><path id="_EF86EB6F-478E-4073-8F03-64E5CD7665F6_1" d="M425 180.25L425 120 L479.4296950114832 120.21096781012203 " stroke="#000000" fill="none" stroke-width="2" stroke-linecap="round" stroke-linejoin="round" marker-start="url(#_EF86EB6F-478E-4073-8F03-64E5CD7665F6start)" marker-end="url(#_EF86EB6F-478E-4073-8F03-64E5CD7665F6end)"/></g><text id="_EF86EB6F-478E-4073-8F03-64E5CD7665F6text_name" font-size="12" x="439" y="166.25" oryx:edgePosition="startTop" stroke-width="0pt" letter-spacing="-0.01px" fill="#000000" text-anchor="start" transform="rotate(270 425 180.25)" visibility="inherit" oryx:fontSize="12"><tspan x="439" y="166.25" dy="0">Si</tspan></text></g><g class="children" style="overflow:hidden"/><g class="edge"/></g><g class="controls"><g class="dockers"/><g class="magnets"/></g></g><g id="_A9FB215E-02A6-4657-B86D-1CA6ADF000B0" bpmn2nodeid="_46DD69D3-61FE-48CF-A252-5B9D277EB46E"><g class="stencils"><g class="me"><g pointer-events="painted" bpmn2nodeid="_9966B5F8-1484-4A1F-B64F-9852B44742EF"><path id="_A9FB215E-02A6-4657-B86D-1CA6ADF000B0_1" d="M425 220.03125L425 284 L479.4296950114832 284.21096781012204 " stroke="#000000" fill="none" stroke-width="2" stroke-linecap="round" stroke-linejoin="round" marker-start="url(#_A9FB215E-02A6-4657-B86D-1CA6ADF000B0start)" marker-end="url(#_A9FB215E-02A6-4657-B86D-1CA6ADF000B0end)"/></g><text id="_A9FB215E-02A6-4657-B86D-1CA6ADF000B0text_name" font-size="12" x="411" y="206.03125" oryx:edgePosition="startTop" stroke-width="0pt" letter-spacing="-0.01px" fill="#000000" text-anchor="end" transform="rotate(-90 425 220.03125)" visibility="inherit" oryx:fontSize="12"><tspan x="411" y="206.03125" dy="0">No</tspan></text></g><g class="children" style="overflow:hidden"/><g class="edge"/></g><g class="controls"><g class="dockers"/><g class="magnets"/></g></g><g id="_3456DA21-3D18-4F2F-8247-145DF463CFB2" bpmn2nodeid="_13533036-36F1-4743-A28B-556335554A1E"><g class="stencils"><g class="me"><g pointer-events="painted" bpmn2nodeid="_33A5D27D-EE2D-4121-9188-025E832EE61E"><path id="_3456DA21-3D18-4F2F-8247-145DF463CFB2_1" d="M923.2132554529214 198.08281521548196L966.9429945470786 193.47968478451804 " stroke="#000000" fill="none" stroke-width="2" stroke-linecap="round" stroke-linejoin="round" marker-start="url(#_3456DA21-3D18-4F2F-8247-145DF463CFB2start)" marker-end="url(#_3456DA21-3D18-4F2F-8247-145DF463CFB2end)"/></g><text id="_3456DA21-3D18-4F2F-8247-145DF463CFB2text_name" font-size="12" x="937.2132554529214" y="184.08281521548196" oryx:edgePosition="startTop" stroke-width="0pt" letter-spacing="-0.01px" fill="#000000" text-anchor="start" transform="rotate(353.99099404250546 923.2132554529214 198.08281521548196)" visibility="inherit" oryx:fontSize="12"/></g><g class="children" style="overflow:hidden"/><g class="edge"/></g><g class="controls"><g class="dockers"/><g class="magnets"/></g></g><g id="_BBF9DA1D-38F1-4A01-BFF6-E5A03BC72419" bpmn2nodeid="_C9D9D387-C722-40BE-B9E8-DA8F26CE5DE7"><g class="stencils"><g class="me"><g pointer-events="painted" bpmn2nodeid="_0AA96042-AAB6-49D5-9F18-FEE2AE4EE21A"><path id="_BBF9DA1D-38F1-4A01-BFF6-E5A03BC72419_1" d="M156.42185020425495 201.8913954210968L405.14064979574505 200.1398545789032 " stroke="#000000" fill="none" stroke-width="2" stroke-linecap="round" stroke-linejoin="round" marker-start="url(#_BBF9DA1D-38F1-4A01-BFF6-E5A03BC72419start)" marker-end="url(#_BBF9DA1D-38F1-4A01-BFF6-E5A03BC72419end)"/></g><text id="_BBF9DA1D-38F1-4A01-BFF6-E5A03BC72419text_name" font-size="12" x="170.42185020425495" y="187.8913954210968" oryx:edgePosition="startTop" stroke-width="0pt" letter-spacing="-0.01px" fill="#000000" text-anchor="start" transform="rotate(359.5965152649413 156.42185020425495 201.8913954210968)" visibility="inherit" oryx:fontSize="12"/></g><g class="children" style="overflow:hidden"/><g class="edge"/></g><g class="controls"><g class="dockers"/><g class="magnets"/></g></g><g id="_AB02AB4B-6ED6-442D-A37D-9B1111C60111" bpmn2nodeid="_C0C4411A-9DC5-47FA-9DDF-77717E6D4E9F"><g class="stencils"><g class="me"><g pointer-events="painted" bpmn2nodeid="_550EDC5D-AA43-49E7-8518-1A9EA53AEF58"><path id="_AB02AB4B-6ED6-442D-A37D-9B1111C60111_1" d="M628.3535146103994 284.3940833125208L905 284 L905 220.03125 " stroke="#000000" fill="none" stroke-width="2" stroke-linecap="round" stroke-linejoin="round" marker-start="url(#_AB02AB4B-6ED6-442D-A37D-9B1111C60111start)" marker-end="url(#_AB02AB4B-6ED6-442D-A37D-9B1111C60111end)"/></g><text id="_AB02AB4B-6ED6-442D-A37D-9B1111C60111text_name" font-size="12" x="642.3535146103994" y="270.3940833125208" oryx:edgePosition="startTop" stroke-width="0pt" letter-spacing="-0.01px" fill="#000000" text-anchor="start" transform="rotate(359.9183821356721 628.3535146103994 284.3940833125208)" visibility="inherit" oryx:fontSize="12"/></g><g class="children" style="overflow:hidden"/><g class="edge"/></g><g class="controls"><g class="dockers"/><g class="magnets"/></g></g></g><text id="_A1A2443F-63E8-45F6-B453-807B9D100080" style="stroke-width:1;fill:rgb(177,194,214);font-family:arial;font-weight:bold" font-size="12" onclick="ORYX.Plugins.CanvasTitle.openTextualAnalysis()" onmouseover="ORYX.Plugins.CanvasTitle.addToolTip('_A1A2443F-63E8-45F6-B453-807B9D100080')" transform="translate(10, 20)">Registro Sustancias Quimicas Importacion - Vue v.1.0 (rcoa.RegistroSustanciasQuimicasImportacionVue)</text></g></g></svg>